<svg width="1920" height="880" viewBox="0 0 1920 880" fill="none" xmlns="http://www.w3.org/2000/svg">
<g clip-path="url(#clip0_224_2728)">
<rect width="1920" height="880" fill="#281109"/>
<g filter="url(#filter0_d_224_2728)">
<path d="M431.54 1181.16C322.188 1236.1 283.796 1277.54 278.27 1291.39L279.242 1307.86L283.191 1374.74C396.067 1389.12 631.504 1417.29 670.236 1415C708.969 1412.72 1737.97 1342.28 2247.63 1307.35C2244.33 965.783 2237.6 280.555 2237.11 272.17C2236.61 263.784 2052.92 70.8416 1961.14 -24.5815C1858.92 11.5056 1643.48 89.0376 1599.47 110.469C1544.45 137.258 1545.25 193.308 1522.73 303.828C1500.2 414.347 1503.92 485.753 1332.1 493.893C1160.28 502.034 1029.98 534.77 1037.03 654.062C1044.07 773.354 978.02 833.852 871.324 842.155C764.628 850.458 766.227 911.47 730.606 1020.76C694.985 1130.05 568.23 1112.49 431.54 1181.16Z" fill="#FFCFA3"/>
</g>
<g filter="url(#filter1_d_224_2728)">
<path d="M528.559 1177.57C415.961 1225.51 375.035 1264.44 368.646 1277.91L368.578 1294.41L368.304 1361.41C480.05 1382.87 713.243 1425.83 752.042 1425.99C790.842 1426.15 1822.24 1420.71 2333.09 1417.97C2351.32 1076.87 2387.79 392.584 2387.83 384.184C2387.86 375.784 2216.7 171.647 2131.11 70.629C2026.82 100.202 1806.93 164.001 1761.65 182.615C1705.05 205.883 1702.32 261.873 1672.88 370.753C1643.43 479.633 1642.64 551.13 1470.65 548.425C1298.66 545.72 1166.55 570.179 1166.06 689.678C1165.57 809.177 1095.84 865.391 988.836 866.952C881.829 868.514 879.579 929.505 837.141 1036.33C794.702 1143.16 669.306 1117.64 528.559 1177.57Z" fill="url(#paint0_linear_224_2728)"/>
</g>
<g filter="url(#filter2_d_224_2728)">
<path d="M541.943 1216.07C405.336 1265.2 354.917 1307.06 346.784 1321.85L347.045 1369.42L2417.05 1369.42C2451.02 989.431 2448.35 651.336 2448.35 550.501C2448.35 479.323 2423.3 269.604 2324.35 153.528C2198.35 182.48 2109.59 134.513 2054.68 153.528C1986.05 177.298 1980.79 239.682 1941.64 360.06C1902.48 480.438 1898.99 560.207 1693.03 550.501C1487.06 540.795 1327.92 562.958 1323.09 696.314C1318.25 829.669 1232.71 889.7 1104.45 887.282C976.185 884.865 971.32 952.851 916.675 1070.43C862.031 1188.01 712.702 1154.66 541.943 1216.07Z" fill="url(#paint1_linear_224_2728)"/>
</g>
<path d="M283.223 926.247L84.981 702.692L-151.275 890.277L46.967 1113.83L283.223 926.247Z" fill="url(#paint2_linear_224_2728)"/>
<g style="mix-blend-mode:overlay">
<path d="M141.192 1000.25C140.133 999.107 140.251 997.354 141.457 996.352C142.662 995.35 144.515 995.461 145.574 996.602C146.633 997.743 146.515 999.497 145.309 1000.5C144.104 1001.5 142.251 1001.39 141.192 1000.25ZM159.044 989.089C160.249 988.087 160.367 986.334 159.308 985.193C158.249 984.052 156.397 983.94 155.191 984.942C153.985 985.944 153.867 987.697 154.926 988.838C155.985 989.979 157.838 990.09 159.044 989.089ZM215.627 918.989C216.833 917.987 216.951 916.234 215.892 915.093C214.833 913.952 212.981 913.841 211.775 914.843C210.569 915.844 210.451 917.598 211.51 918.739C212.569 919.88 214.422 919.991 215.627 918.989ZM117.841 1023.35C119.047 1022.34 119.164 1020.59 118.106 1019.45C117.047 1018.31 115.194 1018.2 113.988 1019.2C112.782 1020.2 112.665 1021.95 113.723 1023.09C114.782 1024.24 116.635 1024.35 117.841 1023.35ZM131.575 1011.94C132.781 1010.93 132.898 1009.18 131.84 1008.04C130.781 1006.9 128.928 1006.79 127.722 1007.79C126.517 1008.79 126.399 1010.54 127.458 1011.69C128.516 1012.83 130.369 1012.94 131.575 1011.94ZM172.778 977.679C173.984 976.677 174.101 974.924 173.042 973.783C171.984 972.642 170.131 972.531 168.925 973.533C167.719 974.534 167.602 976.288 168.66 977.429C169.719 978.57 171.572 978.681 172.778 977.679ZM162.367 940.278C163.573 939.276 163.69 937.523 162.631 936.382C161.573 935.241 159.72 935.13 158.514 936.131C157.308 937.133 157.191 938.886 158.249 940.027C159.308 941.168 161.161 941.28 162.367 940.278ZM186.512 966.27C187.718 965.268 187.835 963.514 186.777 962.373C185.718 961.233 183.865 961.121 182.659 962.123C181.453 963.125 181.336 964.878 182.395 966.019C183.453 967.16 185.306 967.271 186.512 966.27ZM200.246 954.86C201.452 953.858 201.57 952.105 200.511 950.964C199.452 949.823 197.599 949.712 196.394 950.713C195.188 951.715 195.07 953.468 196.129 954.609C197.188 955.75 199.04 955.862 200.246 954.86ZM263.918 971C265.124 969.998 265.241 968.245 264.182 967.104C263.124 965.963 261.271 965.852 260.065 966.854C258.859 967.856 258.742 969.609 259.8 970.75C260.859 971.891 262.712 972.002 263.918 971ZM129.928 1036.37C131.134 1035.37 131.252 1033.61 130.193 1032.47C129.134 1031.33 127.281 1031.22 126.075 1032.22C124.87 1033.22 124.752 1034.98 125.811 1036.12C126.87 1037.26 128.722 1037.37 129.928 1036.37ZM203.57 906.021C204.775 905.019 204.893 903.266 203.834 902.125C202.775 900.984 200.923 900.873 199.717 901.875C198.511 902.877 198.393 904.63 199.452 905.771C200.511 906.912 202.364 907.023 203.57 906.021ZM105.783 1010.38C106.989 1009.38 107.106 1007.62 106.048 1006.48C104.989 1005.34 103.136 1005.23 101.93 1006.23C100.725 1007.23 100.607 1008.99 101.666 1010.13C102.724 1011.27 104.577 1011.38 105.783 1010.38ZM176.101 928.868C177.307 927.866 177.425 926.113 176.366 924.972C175.307 923.831 173.454 923.72 172.248 924.722C171.043 925.724 170.925 927.477 171.984 928.618C173.042 929.759 174.895 929.87 176.101 928.868ZM119.517 998.968C120.723 997.966 120.84 996.213 119.782 995.072C118.723 993.931 116.87 993.82 115.665 994.821C114.459 995.823 114.341 997.576 115.4 998.717C116.458 999.858 118.311 999.97 119.517 998.968ZM189.835 917.459C191.041 916.457 191.159 914.704 190.1 913.563C189.041 912.422 187.188 912.31 185.983 913.312C184.777 914.314 184.659 916.067 185.718 917.208C186.777 918.349 188.629 918.46 189.835 917.459ZM174.454 953.301C175.66 952.3 175.778 950.547 174.719 949.406C173.66 948.265 171.807 948.153 170.601 949.155C169.396 950.157 169.278 951.91 170.337 953.051C171.395 954.192 173.248 954.303 174.454 953.301ZM133.251 987.558C134.457 986.556 134.575 984.803 133.516 983.662C132.457 982.521 130.604 982.41 129.399 983.412C128.193 984.414 128.075 986.167 129.134 987.308C130.193 988.449 132.046 988.56 133.251 987.558ZM201.923 930.454C203.128 929.453 203.246 927.699 202.187 926.558C201.128 925.417 199.276 925.306 198.07 926.308C196.864 927.31 196.746 929.063 197.805 930.204C198.864 931.345 200.717 931.456 201.923 930.454ZM188.188 941.864C189.394 940.862 189.512 939.109 188.453 937.968C187.394 936.827 185.541 936.716 184.336 937.718C183.13 938.719 183.012 940.473 184.071 941.613C185.13 942.754 186.982 942.866 188.188 941.864ZM160.72 964.711C161.926 963.709 162.043 961.956 160.984 960.815C159.926 959.674 158.073 959.563 156.867 960.565C155.661 961.566 155.544 963.32 156.602 964.461C157.661 965.602 159.514 965.713 160.72 964.711ZM146.986 976.121C148.191 975.119 148.309 973.366 147.25 972.225C146.192 971.084 144.339 970.972 143.133 971.974C141.927 972.976 141.81 974.729 142.868 975.87C143.927 977.011 145.78 977.123 146.986 976.121ZM227.715 932.013C228.92 931.011 229.038 929.258 227.979 928.117C226.921 926.976 225.068 926.864 223.862 927.866C222.656 928.868 222.539 930.621 223.597 931.762C224.656 932.903 226.509 933.015 227.715 932.013ZM251.86 958.004C253.066 957.003 253.183 955.25 252.124 954.109C251.066 952.968 249.213 952.856 248.007 953.858C246.801 954.86 246.684 956.613 247.742 957.754C248.801 958.895 250.654 959.006 251.86 958.004ZM167.807 1050.95C169.013 1049.95 169.131 1048.2 168.072 1047.06C167.014 1045.91 165.161 1045.8 163.955 1046.8C162.749 1047.81 162.632 1049.56 163.69 1050.7C164.749 1051.84 166.602 1051.95 167.807 1050.95ZM210.657 992.261C211.863 991.259 211.981 989.506 210.922 988.365C209.863 987.224 208.01 987.113 206.805 988.115C205.599 989.117 205.481 990.87 206.54 992.011C207.599 993.152 209.451 993.263 210.657 992.261ZM224.391 980.852C225.597 979.85 225.715 978.096 224.656 976.956C223.597 975.815 221.744 975.703 220.539 976.705C219.333 977.707 219.215 979.46 220.274 980.601C221.333 981.742 223.186 981.853 224.391 980.852ZM238.126 969.442C239.332 968.44 239.449 966.687 238.39 965.546C237.332 964.405 235.479 964.294 234.273 965.295C233.067 966.297 232.95 968.051 234.008 969.191C235.067 970.332 236.92 970.444 238.126 969.442ZM154.073 1062.39C155.279 1061.39 155.397 1059.63 154.338 1058.49C153.279 1057.35 151.426 1057.24 150.221 1058.24C149.015 1059.24 148.897 1061 149.956 1062.14C151.015 1063.28 152.868 1063.39 154.073 1062.39ZM236.479 993.875C237.685 992.873 237.802 991.12 236.743 989.979C235.685 988.838 233.832 988.727 232.626 989.729C231.42 990.731 231.303 992.484 232.361 993.625C233.42 994.766 235.273 994.877 236.479 993.875ZM250.213 982.466C251.419 981.464 251.536 979.711 250.478 978.57C249.419 977.429 247.566 977.317 246.36 978.319C245.155 979.321 245.037 981.074 246.096 982.215C247.154 983.356 249.007 983.467 250.213 982.466ZM222.744 1005.31C223.95 1004.31 224.068 1002.56 223.009 1001.42C221.95 1000.28 220.098 1000.16 218.892 1001.17C217.686 1002.17 217.568 1003.92 218.627 1005.06C219.686 1006.2 221.539 1006.31 222.744 1005.31ZM181.542 1039.57C182.747 1038.57 182.865 1036.81 181.806 1035.67C180.748 1034.53 178.895 1034.42 177.689 1035.42C176.483 1036.42 176.366 1038.18 177.424 1039.32C178.483 1040.46 180.336 1040.57 181.542 1039.57ZM195.276 1028.16C196.482 1027.16 196.599 1025.4 195.541 1024.26C194.482 1023.12 192.629 1023.01 191.423 1024.01C190.218 1025.02 190.1 1026.77 191.159 1027.91C192.217 1029.05 194.07 1029.16 195.276 1028.16ZM209.01 1016.75C210.216 1015.75 210.334 1014 209.275 1012.85C208.216 1011.71 206.363 1011.6 205.158 1012.6C203.952 1013.61 203.834 1015.36 204.893 1016.5C205.952 1017.64 207.804 1017.75 209.01 1016.75ZM169.484 1026.6C170.69 1025.6 170.807 1023.85 169.749 1022.71C168.69 1021.56 166.837 1021.45 165.631 1022.45C164.425 1023.46 164.308 1025.21 165.366 1026.35C166.425 1027.49 168.278 1027.6 169.484 1026.6ZM198.599 979.349C199.805 978.347 199.923 976.594 198.864 975.453C197.805 974.312 195.952 974.2 194.747 975.202C193.541 976.204 193.423 977.957 194.482 979.098C195.541 980.239 197.394 980.351 198.599 979.349ZM184.865 990.758C186.071 989.757 186.188 988.003 185.13 986.862C184.071 985.721 182.218 985.61 181.012 986.612C179.807 987.614 179.689 989.367 180.748 990.508C181.806 991.649 183.659 991.76 184.865 990.758ZM212.334 967.911C213.539 966.909 213.657 965.156 212.598 964.015C211.539 962.874 209.687 962.763 208.481 963.765C207.275 964.767 207.157 966.52 208.216 967.661C209.275 968.802 211.128 968.913 212.334 967.911ZM157.397 1013.61C158.602 1012.6 158.72 1010.85 157.661 1009.71C156.602 1008.57 154.75 1008.46 153.544 1009.46C152.338 1010.46 152.22 1012.21 153.279 1013.36C154.338 1014.5 156.191 1014.61 157.397 1013.61ZM226.068 956.502C227.273 955.5 227.391 953.747 226.332 952.606C225.274 951.465 223.421 951.354 222.215 952.355C221.009 953.357 220.892 955.11 221.95 956.251C223.009 957.392 224.862 957.504 226.068 956.502ZM171.131 1002.2C172.337 1001.19 172.454 999.441 171.396 998.3C170.337 997.159 168.484 997.048 167.278 998.049C166.072 999.051 165.955 1000.8 167.013 1001.95C168.072 1003.09 169.925 1003.2 171.131 1002.2ZM143.662 1025.04C144.868 1024.04 144.986 1022.29 143.927 1021.15C142.868 1020.01 141.015 1019.89 139.81 1020.9C138.604 1021.9 138.486 1023.65 139.545 1024.79C140.604 1025.93 142.456 1026.04 143.662 1025.04ZM196.923 1003.78C198.129 1002.78 198.246 1001.03 197.188 999.886C196.129 998.745 194.276 998.634 193.07 999.636C191.865 1000.64 191.747 1002.39 192.806 1003.53C193.864 1004.67 195.717 1004.78 196.923 1003.78ZM155.72 1038.04C156.926 1037.04 157.044 1035.28 155.985 1034.14C154.926 1033 153.073 1032.89 151.868 1033.89C150.662 1034.89 150.544 1036.65 151.603 1037.79C152.662 1038.93 154.514 1039.04 155.72 1038.04ZM183.189 1015.19C184.394 1014.19 184.512 1012.44 183.453 1011.3C182.395 1010.15 180.542 1010.04 179.336 1011.05C178.13 1012.05 178.013 1013.8 179.071 1014.94C180.13 1016.08 181.983 1016.19 183.189 1015.19ZM141.986 1049.45C143.192 1048.45 143.309 1046.69 142.251 1045.55C141.192 1044.41 139.339 1044.3 138.133 1045.3C136.928 1046.3 136.81 1048.06 137.869 1049.2C138.927 1050.34 140.78 1050.45 141.986 1049.45ZM213.98 943.506C215.186 942.504 215.304 940.751 214.245 939.61C213.186 938.469 211.334 938.358 210.128 939.359C208.922 940.361 208.804 942.114 209.863 943.255C210.922 944.396 212.775 944.508 213.98 943.506ZM127.84 876.968C129.046 875.966 129.163 874.213 128.105 873.072C127.046 871.931 125.193 871.82 123.987 872.822C122.782 873.824 122.664 875.577 123.723 876.718C124.781 877.859 126.634 877.97 127.84 876.968ZM71.2561 947.068C72.4619 946.066 72.5796 944.313 71.5208 943.172C70.4621 942.031 68.6092 941.92 67.4034 942.922C66.1976 943.923 66.0801 945.677 67.1389 946.818C68.1976 947.958 70.0503 948.07 71.2561 947.068ZM155.308 854.121C156.514 853.119 156.632 851.366 155.573 850.225C154.514 849.084 152.662 848.973 151.456 849.975C150.25 850.977 150.132 852.73 151.191 853.871C152.25 855.012 154.103 855.123 155.308 854.121ZM57.5219 958.477C58.7277 957.476 58.8454 955.723 57.7867 954.582C56.7279 953.441 54.875 953.329 53.6693 954.331C52.4635 955.333 52.3459 957.086 53.4047 958.227C54.4634 959.368 56.3161 959.479 57.5219 958.477ZM126.193 901.374C127.399 900.372 127.516 898.619 126.458 897.478C125.399 896.337 123.546 896.226 122.34 897.227C121.135 898.229 121.017 899.982 122.076 901.123C123.135 902.264 124.987 902.376 126.193 901.374ZM139.927 889.964C141.133 888.962 141.251 887.209 140.192 886.068C139.133 884.927 137.28 884.816 136.075 885.818C134.869 886.82 134.751 888.573 135.81 889.714C136.869 890.855 138.722 890.966 139.927 889.964ZM153.662 878.555C154.867 877.553 154.985 875.799 153.926 874.659C152.868 873.518 151.015 873.406 149.809 874.408C148.603 875.41 148.485 877.163 149.544 878.304C150.603 879.445 152.456 879.556 153.662 878.555ZM98.7246 924.249C99.9304 923.247 100.048 921.494 98.9894 920.353C97.9306 919.212 96.0778 919.1 94.872 920.102C93.6662 921.104 93.5485 922.857 94.6072 923.998C95.666 925.139 97.5188 925.25 98.7246 924.249ZM112.459 912.839C113.665 911.837 113.782 910.084 112.724 908.943C111.665 907.802 109.812 907.691 108.606 908.693C107.4 909.695 107.283 911.448 108.342 912.589C109.4 913.73 111.253 913.841 112.459 912.839ZM84.9904 935.686C86.1962 934.684 86.3138 932.931 85.255 931.79C84.1963 930.649 82.3436 930.538 81.1378 931.54C79.932 932.541 79.8143 934.295 80.873 935.436C81.9318 936.577 83.7846 936.688 84.9904 935.686ZM141.574 865.587C142.78 864.585 142.898 862.832 141.839 861.691C140.78 860.55 138.927 860.438 137.722 861.44C136.516 862.442 136.398 864.195 137.457 865.336C138.516 866.477 140.368 866.588 141.574 865.587ZM143.251 841.181C144.456 840.179 144.574 838.426 143.515 837.285C142.456 836.144 140.604 836.033 139.398 837.035C138.192 838.037 138.074 839.79 139.133 840.931C140.192 842.072 142.045 842.183 143.251 841.181ZM129.516 852.591C130.722 851.589 130.84 849.836 129.781 848.695C128.722 847.554 126.869 847.442 125.664 848.444C124.458 849.446 124.34 851.199 125.399 852.34C126.458 853.481 128.31 853.592 129.516 852.591ZM88.3137 886.847C89.5195 885.846 89.637 884.092 88.5783 882.951C87.5196 881.811 85.6669 881.699 84.4611 882.701C83.2553 883.703 83.1376 885.456 84.1963 886.597C85.2551 887.738 87.1079 887.849 88.3137 886.847ZM102.048 875.438C103.254 874.436 103.371 872.683 102.312 871.542C101.254 870.401 99.4011 870.29 98.1953 871.291C96.9895 872.293 96.8718 874.046 97.9305 875.187C98.9892 876.328 100.842 876.44 102.048 875.438ZM115.782 864.028C116.988 863.026 117.106 861.273 116.047 860.132C114.988 858.991 113.135 858.88 111.929 859.882C110.724 860.883 110.606 862.637 111.665 863.778C112.724 864.919 114.576 865.03 115.782 864.028ZM86.6668 911.281C87.8726 910.279 87.9901 908.526 86.9314 907.385C85.8726 906.244 84.0199 906.132 82.8142 907.134C81.6084 908.136 81.4907 909.889 82.5494 911.03C83.6081 912.171 85.461 912.283 86.6668 911.281ZM114.135 888.434C115.341 887.432 115.459 885.679 114.4 884.538C113.341 883.397 111.488 883.285 110.283 884.287C109.077 885.289 108.959 887.042 110.018 888.183C111.077 889.324 112.929 889.435 114.135 888.434ZM72.9324 922.69C74.1382 921.688 74.2559 919.935 73.1972 918.794C72.1385 917.653 70.2856 917.542 69.0798 918.544C67.874 919.546 67.7565 921.299 68.8152 922.44C69.874 923.581 71.7266 923.692 72.9324 922.69ZM100.401 899.843C101.607 898.841 101.724 897.088 100.666 895.947C99.6068 894.806 97.7541 894.695 96.5483 895.697C95.3426 896.699 95.2248 898.452 96.2836 899.593C97.3423 900.734 99.1952 900.845 100.401 899.843ZM59.1982 934.1C60.404 933.098 60.5218 931.345 59.463 930.204C58.4043 929.063 56.5514 928.952 55.3456 929.953C54.1398 930.955 54.0221 932.708 55.0809 933.849C56.1396 934.99 57.9925 935.102 59.1982 934.1ZM45.4641 945.51C46.6699 944.508 46.7874 942.754 45.7287 941.613C44.6699 940.473 42.8172 940.361 41.6114 941.363C40.4056 942.365 40.2879 944.118 41.3467 945.259C42.4054 946.4 44.2583 946.511 45.4641 945.51ZM109.136 961.65C110.341 960.648 110.459 958.895 109.4 957.754C108.342 956.613 106.489 956.502 105.283 957.504C104.077 958.505 103.96 960.259 105.018 961.4C106.077 962.541 107.93 962.652 109.136 961.65ZM164.072 915.956C165.278 914.954 165.396 913.201 164.337 912.06C163.278 910.919 161.426 910.808 160.22 911.809C159.014 912.811 158.896 914.564 159.955 915.705C161.014 916.846 162.867 916.958 164.072 915.956ZM177.807 904.546C179.013 903.544 179.13 901.791 178.071 900.65C177.013 899.509 175.16 899.398 173.954 900.4C172.748 901.402 172.631 903.155 173.689 904.296C174.748 905.437 176.601 905.548 177.807 904.546ZM150.338 927.393C151.544 926.391 151.662 924.638 150.603 923.497C149.544 922.356 147.691 922.245 146.486 923.247C145.28 924.249 145.162 926.002 146.221 927.143C147.28 928.284 149.132 928.395 150.338 927.393ZM122.87 950.24C124.076 949.239 124.193 947.485 123.134 946.344C122.076 945.203 120.223 945.092 119.017 946.094C117.811 947.096 117.694 948.849 118.752 949.99C119.811 951.131 121.664 951.242 122.87 950.24ZM167.396 867.145C168.601 866.143 168.719 864.39 167.66 863.249C166.602 862.108 164.749 861.997 163.543 862.998C162.337 864 162.22 865.754 163.278 866.894C164.337 868.035 166.19 868.147 167.396 867.145ZM148.662 951.799C149.868 950.797 149.985 949.044 148.927 947.903C147.868 946.762 146.015 946.651 144.809 947.652C143.603 948.654 143.486 950.407 144.545 951.548C145.603 952.689 147.456 952.801 148.662 951.799ZM134.928 963.208C136.133 962.206 136.251 960.453 135.192 959.312C134.134 958.171 132.281 958.06 131.075 959.062C129.869 960.064 129.752 961.817 130.81 962.958C131.869 964.099 133.722 964.21 134.928 963.208ZM121.194 974.618C122.399 973.616 122.517 971.863 121.458 970.722C120.399 969.581 118.547 969.47 117.341 970.472C116.135 971.473 116.017 973.227 117.076 974.368C118.135 975.508 119.988 975.62 121.194 974.618ZM95.4013 973.032C96.6071 972.03 96.7248 970.277 95.6661 969.136C94.6073 967.995 92.7545 967.884 91.5487 968.885C90.3429 969.887 90.2252 971.64 91.2839 972.781C92.3427 973.922 94.1955 974.034 95.4013 973.032ZM107.459 986.028C108.665 985.026 108.783 983.272 107.724 982.132C106.665 980.991 104.812 980.879 103.607 981.881C102.401 982.883 102.283 984.636 103.342 985.777C104.401 986.918 106.253 987.029 107.459 986.028ZM191.512 893.081C192.717 892.079 192.835 890.326 191.776 889.185C190.718 888.044 188.865 887.933 187.659 888.934C186.453 889.936 186.336 891.69 187.394 892.831C188.453 893.971 190.306 894.083 191.512 893.081ZM93.725 997.437C94.9308 996.435 95.0485 994.682 93.9897 993.541C92.931 992.4 91.0781 992.289 89.8723 993.291C88.6665 994.293 88.549 996.046 89.6077 997.187C90.6665 998.328 92.5192 998.439 93.725 997.437ZM136.575 938.775C137.78 937.773 137.898 936.02 136.839 934.879C135.781 933.738 133.928 933.627 132.722 934.629C131.516 935.631 131.398 937.384 132.457 938.525C133.516 939.666 135.369 939.777 136.575 938.775ZM97.0482 948.626C98.254 947.624 98.3718 945.871 97.313 944.73C96.2543 943.589 94.4014 943.478 93.1956 944.48C91.9898 945.482 91.8721 947.235 92.9309 948.376C93.9896 949.517 95.8425 949.628 97.0482 948.626ZM83.3141 960.036C84.5199 959.034 84.6374 957.281 83.5787 956.14C82.5199 954.999 80.6672 954.888 79.4614 955.889C78.2556 956.891 78.1379 958.645 79.1967 959.785C80.2554 960.926 82.1083 961.038 83.3141 960.036ZM110.782 937.189C111.988 936.187 112.106 934.434 111.047 933.293C109.988 932.152 108.136 932.041 106.93 933.042C105.724 934.044 105.606 935.797 106.665 936.938C107.724 938.079 109.577 938.191 110.782 937.189ZM81.6671 984.441C82.8729 983.44 82.9905 981.686 81.9317 980.545C80.873 979.405 79.0203 979.293 77.8145 980.295C76.6087 981.297 76.491 983.05 77.5497 984.191C78.6085 985.332 80.4614 985.443 81.6671 984.441ZM69.6091 971.446C70.8149 970.444 70.9327 968.69 69.8739 967.55C68.8152 966.409 66.9623 966.297 65.7565 967.299C64.5507 968.301 64.4332 970.054 65.4919 971.195C66.5507 972.336 68.4034 972.447 69.6091 971.446ZM124.546 925.751C125.752 924.75 125.87 922.996 124.811 921.855C123.752 920.714 121.899 920.603 120.693 921.605C119.488 922.607 119.37 924.36 120.429 925.501C121.488 926.642 123.34 926.753 124.546 925.751ZM179.483 880.057C180.689 879.055 180.806 877.302 179.748 876.161C178.689 875.02 176.836 874.909 175.631 875.911C174.425 876.913 174.307 878.666 175.366 879.807C176.425 880.948 178.277 881.059 179.483 880.057ZM152.015 902.904C153.22 901.903 153.338 900.149 152.279 899.008C151.221 897.867 149.368 897.756 148.162 898.758C146.956 899.76 146.838 901.513 147.897 902.654C148.956 903.795 150.809 903.906 152.015 902.904ZM165.749 891.495C166.955 890.493 167.072 888.74 166.014 887.599C164.955 886.458 163.102 886.346 161.896 887.348C160.69 888.35 160.573 890.103 161.632 891.244C162.69 892.385 164.543 892.497 165.749 891.495ZM138.28 914.342C139.486 913.34 139.604 911.587 138.545 910.446C137.486 909.305 135.634 909.194 134.428 910.195C133.222 911.197 133.104 912.95 134.163 914.091C135.222 915.232 137.075 915.344 138.28 914.342ZM79.6084 824.957C80.8142 823.955 80.9319 822.202 79.8732 821.061C78.8145 819.92 76.9616 819.809 75.7558 820.811C74.55 821.813 74.4323 823.566 75.491 824.707C76.5498 825.848 78.4027 825.959 79.6084 824.957ZM38.4057 859.214C39.6115 858.212 39.7292 856.459 38.6705 855.318C37.6117 854.177 35.7589 854.066 34.5531 855.067C33.3473 856.069 33.2298 857.822 34.2885 858.963C35.3472 860.104 37.1999 860.216 38.4057 859.214ZM107.077 802.11C108.283 801.108 108.4 799.355 107.342 798.214C106.283 797.073 104.43 796.962 103.224 797.964C102.018 798.965 101.901 800.719 102.96 801.86C104.018 803.001 105.871 803.112 107.077 802.11ZM77.9615 849.363C79.1673 848.361 79.2848 846.608 78.2261 845.467C77.1674 844.326 75.3147 844.214 74.1089 845.216C72.9031 846.218 72.7854 847.971 73.8441 849.112C74.9029 850.253 76.7557 850.364 77.9615 849.363ZM74.6382 898.201C75.844 897.2 75.9617 895.446 74.903 894.305C73.8443 893.164 71.9914 893.053 70.7856 894.055C69.5798 895.057 69.4621 896.81 70.5208 897.951C71.5796 899.092 73.4324 899.203 74.6382 898.201ZM52.1693 847.804C53.3751 846.802 53.4928 845.049 52.4341 843.908C51.3754 842.767 49.5225 842.656 48.3167 843.658C47.1109 844.66 46.9934 846.413 48.0521 847.554C49.1109 848.695 50.9636 848.806 52.1693 847.804ZM65.9037 836.395C67.1095 835.393 67.227 833.64 66.1683 832.499C65.1095 831.358 63.2567 831.246 62.0509 832.248C60.8451 833.25 60.7276 835.003 61.7863 836.144C62.845 837.285 64.6979 837.396 65.9037 836.395ZM93.3721 813.548C94.5779 812.546 94.6956 810.793 93.6368 809.652C92.5781 808.511 90.7252 808.399 89.5194 809.401C88.3136 810.403 88.1959 812.156 89.2547 813.297C90.3134 814.438 92.1663 814.549 93.3721 813.548ZM50.5224 872.237C51.7282 871.236 51.8459 869.483 50.7872 868.342C49.7284 867.201 47.8756 867.089 46.6698 868.091C45.464 869.093 45.3464 870.846 46.4052 871.987C47.4639 873.128 49.3166 873.239 50.5224 872.237ZM64.2566 860.828C65.4624 859.826 65.5801 858.073 64.5214 856.932C63.4626 855.791 61.6098 855.68 60.404 856.682C59.1982 857.683 59.0806 859.436 60.1394 860.577C61.1981 861.718 63.0508 861.83 64.2566 860.828ZM36.7882 883.675C37.994 882.673 38.1116 880.92 37.0528 879.779C35.9941 878.638 34.1414 878.527 32.9356 879.528C31.7298 880.53 31.6121 882.284 32.6708 883.425C33.7296 884.565 35.5824 884.677 36.7882 883.675ZM23.054 895.085C24.2598 894.083 24.3774 892.33 23.3186 891.189C22.2599 890.048 20.4072 889.936 19.2014 890.938C17.9956 891.94 17.8779 893.693 18.9366 894.834C19.9954 895.975 21.8483 896.086 23.054 895.085ZM9.31968 906.494C10.5255 905.492 10.6432 903.739 9.58444 902.598C8.5257 901.457 6.67283 901.346 5.46704 902.348C4.26125 903.35 4.14372 905.103 5.20246 906.244C6.2612 907.385 8.11389 907.496 9.31968 906.494ZM40.1115 834.836C41.3173 833.834 41.4348 832.081 40.3761 830.94C39.3174 829.799 37.4647 829.688 36.2589 830.69C35.0531 831.692 34.9354 833.445 35.9941 834.586C37.0529 835.727 38.9057 835.838 40.1115 834.836ZM53.8457 823.427C55.0515 822.425 55.1692 820.672 54.1105 819.531C53.0517 818.39 51.1989 818.278 49.9931 819.28C48.7873 820.282 48.6697 822.035 49.7285 823.176C50.7872 824.317 52.6399 824.428 53.8457 823.427ZM24.7304 870.679C25.9362 869.677 26.0537 867.924 24.995 866.783C23.9362 865.642 22.0834 865.531 20.8776 866.533C19.6718 867.534 19.5543 869.288 20.613 870.429C21.6717 871.57 23.5246 871.681 24.7304 870.679ZM67.5799 811.989C68.7857 810.987 68.9034 809.234 67.8447 808.093C66.7859 806.952 64.933 806.841 63.7272 807.843C62.5215 808.845 62.4039 810.598 63.4627 811.739C64.5214 812.88 66.3741 812.991 67.5799 811.989ZM-1.09122 869.093C0.114574 868.091 0.23229 866.338 -0.826452 865.197C-1.88519 864.056 -3.73806 863.945 -4.94385 864.946C-6.14964 865.948 -6.26736 867.702 -5.20862 868.842C-4.14988 869.983 -2.297 870.095 -1.09122 869.093ZM12.643 857.683C13.8488 856.681 13.9665 854.928 12.9077 853.787C11.849 852.646 9.99612 852.535 8.79033 853.537C7.58454 854.539 7.467 856.292 8.52575 857.433C9.58449 858.574 11.4372 858.685 12.643 857.683ZM26.3773 846.274C27.5831 845.272 27.7007 843.519 26.6419 842.378C25.5832 841.237 23.7305 841.125 22.5247 842.127C21.3189 843.129 21.2012 844.882 22.2599 846.023C23.3187 847.164 25.1715 847.276 26.3773 846.274ZM81.3142 800.579C82.52 799.578 82.6376 797.825 81.5788 796.684C80.5201 795.543 78.6674 795.431 77.4616 796.433C76.2558 797.435 76.1381 799.188 77.1968 800.329C78.2556 801.47 80.1085 801.581 81.3142 800.579ZM95.0484 789.17C96.2542 788.168 96.3719 786.415 95.3132 785.274C94.2544 784.133 92.4016 784.022 91.1958 785.024C89.99 786.025 89.8723 787.778 90.931 788.919C91.9898 790.06 93.8426 790.172 95.0484 789.17ZM10.996 882.117C12.2018 881.115 12.3195 879.362 11.2608 878.221C10.2021 877.08 8.3492 876.968 7.14341 877.97C5.93762 878.972 5.82008 880.725 6.87882 881.866C7.93756 883.007 9.79025 883.118 10.996 882.117ZM-2.73814 893.526C-1.53235 892.524 -1.41463 890.771 -2.47338 889.63C-3.53212 888.489 -5.38499 888.378 -6.59078 889.38C-7.79657 890.382 -7.91428 892.135 -6.85554 893.276C-5.7968 894.417 -3.94393 894.528 -2.73814 893.526ZM91.7251 838.009C92.9309 837.007 93.0486 835.254 91.9899 834.113C90.9312 832.972 89.0783 832.86 87.8725 833.862C86.6667 834.864 86.549 836.617 87.6077 837.758C88.6665 838.899 90.5193 839.01 91.7251 838.009ZM105.459 826.599C106.665 825.597 106.783 823.844 105.724 822.703C104.665 821.562 102.812 821.451 101.607 822.453C100.401 823.455 100.283 825.208 101.342 826.349C102.401 827.49 104.254 827.601 105.459 826.599ZM119.194 815.189C120.399 814.188 120.517 812.434 119.458 811.293C118.4 810.153 116.547 810.041 115.341 811.043C114.135 812.045 114.018 813.798 115.076 814.939C116.135 816.08 117.988 816.191 119.194 815.189ZM-14.796 880.558C-13.5902 879.556 -13.4726 877.803 -14.5314 876.662C-15.5901 875.521 -17.4428 875.41 -18.6486 876.412C-19.8544 877.414 -19.9721 879.167 -18.9134 880.308C-17.8546 881.449 -16.0018 881.56 -14.796 880.558ZM239.89 945.12C241.096 944.118 241.214 942.365 240.155 941.224C239.096 940.083 237.243 939.972 236.038 940.973C234.832 941.975 234.714 943.729 235.773 944.87C236.832 946.01 238.684 946.122 239.89 945.12ZM60.9335 909.694C62.1393 908.693 62.2568 906.939 61.1981 905.798C60.1393 904.657 58.2866 904.546 57.0809 905.548C55.8751 906.55 55.7573 908.303 56.8161 909.444C57.8748 910.585 59.7277 910.696 60.9335 909.694ZM62.6097 885.289C63.8155 884.287 63.9332 882.534 62.8744 881.393C61.8157 880.252 59.9628 880.141 58.757 881.143C57.5512 882.144 57.4337 883.898 58.4925 885.039C59.5512 886.18 61.4039 886.291 62.6097 885.289ZM103.812 851.032C105.018 850.03 105.136 848.277 104.077 847.136C103.018 845.995 101.166 845.884 99.9598 846.886C98.754 847.888 98.6364 849.641 99.6952 850.782C100.754 851.923 102.607 852.034 103.812 851.032ZM90.0782 862.442C91.284 861.44 91.4017 859.687 90.343 858.546C89.2842 857.405 87.4314 857.294 86.2256 858.295C85.0198 859.297 84.9021 861.051 85.9608 862.191C87.0196 863.332 88.8724 863.444 90.0782 862.442ZM76.344 873.852C77.5498 872.85 77.6674 871.096 76.6086 869.955C75.5499 868.815 73.6972 868.703 72.4914 869.705C71.2856 870.707 71.1679 872.46 72.2266 873.601C73.2854 874.742 75.1382 874.853 76.344 873.852ZM48.8755 896.699C50.0813 895.697 50.199 893.944 49.1403 892.803C48.0815 891.662 46.2286 891.55 45.0229 892.552C43.8171 893.554 43.6995 895.307 44.7583 896.448C45.817 897.589 47.6697 897.7 48.8755 896.699ZM35.1413 908.108C36.3471 907.106 36.4646 905.353 35.4059 904.212C34.3471 903.071 32.4945 902.96 31.2887 903.962C30.0829 904.964 29.9652 906.717 31.0239 907.858C32.0826 908.999 33.9355 909.11 35.1413 908.108ZM21.4071 919.518C22.6129 918.516 22.7304 916.763 21.6717 915.622C20.613 914.481 18.7603 914.37 17.5545 915.371C16.3487 916.373 16.231 918.126 17.2897 919.267C18.3485 920.408 20.2013 920.52 21.4071 919.518ZM117.547 839.567C118.753 838.565 118.87 836.812 117.811 835.671C116.753 834.53 114.9 834.419 113.694 835.421C112.488 836.422 112.371 838.176 113.429 839.317C114.488 840.458 116.341 840.569 117.547 839.567ZM47.2286 921.076C48.4344 920.075 48.5521 918.321 47.4933 917.18C46.4346 916.039 44.5817 915.928 43.3759 916.93C42.1701 917.932 42.0526 919.685 43.1113 920.826C44.1701 921.967 46.0228 922.078 47.2286 921.076ZM33.4944 932.486C34.7002 931.484 34.8177 929.731 33.759 928.59C32.7002 927.449 30.8475 927.338 29.6417 928.339C28.436 929.341 28.3182 931.094 29.377 932.235C30.4357 933.376 32.2886 933.488 33.4944 932.486ZM131.281 828.13C132.487 827.128 132.604 825.375 131.546 824.234C130.487 823.093 128.634 822.981 127.428 823.983C126.223 824.985 126.105 826.738 127.164 827.879C128.222 829.02 130.075 829.131 131.281 828.13ZM288.181 997.048C289.386 996.046 289.504 994.293 288.445 993.152C287.387 992.011 285.534 991.899 284.328 992.901C283.122 993.903 283.005 995.656 284.063 996.797C285.122 997.938 286.975 998.049 288.181 997.048ZM178.336 1088.41C179.542 1087.41 179.659 1085.65 178.601 1084.51C177.542 1083.37 175.689 1083.26 174.484 1084.26C173.278 1085.26 173.16 1087.02 174.219 1088.16C175.277 1089.3 177.13 1089.41 178.336 1088.41ZM276.123 984.052C277.329 983.05 277.446 981.297 276.387 980.156C275.329 979.015 273.476 978.903 272.27 979.905C271.064 980.907 270.947 982.66 272.005 983.801C273.064 984.942 274.917 985.054 276.123 984.052ZM262.389 995.461C263.594 994.46 263.712 992.706 262.653 991.565C261.594 990.424 259.742 990.313 258.536 991.315C257.33 992.317 257.212 994.07 258.271 995.211C259.33 996.352 261.183 996.463 262.389 995.461ZM248.654 1006.87C249.86 1005.87 249.978 1004.12 248.919 1002.98C247.86 1001.83 246.007 1001.72 244.802 1002.72C243.596 1003.73 243.478 1005.48 244.537 1006.62C245.596 1007.76 247.448 1007.87 248.654 1006.87ZM192.07 1076.97C193.276 1075.97 193.394 1074.22 192.335 1073.07C191.276 1071.93 189.423 1071.82 188.218 1072.82C187.012 1073.83 186.894 1075.58 187.953 1076.72C189.012 1077.86 190.865 1077.97 192.07 1076.97ZM247.007 1031.28C248.213 1030.27 248.331 1028.52 247.272 1027.38C246.213 1026.24 244.36 1026.13 243.155 1027.13C241.949 1028.13 241.831 1029.88 242.89 1031.03C243.949 1032.17 245.801 1032.28 247.007 1031.28ZM260.742 1019.87C261.947 1018.87 262.065 1017.11 261.006 1015.97C259.947 1014.83 258.095 1014.72 256.889 1015.72C255.683 1016.72 255.565 1018.48 256.624 1019.62C257.683 1020.76 259.536 1020.87 260.742 1019.87ZM274.476 1008.46C275.682 1007.46 275.799 1005.7 274.74 1004.56C273.682 1003.42 271.829 1003.31 270.623 1004.31C269.417 1005.31 269.3 1007.07 270.358 1008.21C271.417 1009.35 273.27 1009.46 274.476 1008.46ZM205.805 1065.56C207.01 1064.56 207.128 1062.81 206.069 1061.66C205.011 1060.52 203.158 1060.41 201.952 1061.41C200.746 1062.42 200.629 1064.17 201.687 1065.31C202.746 1066.45 204.599 1066.56 205.805 1065.56ZM233.273 1042.71C234.479 1041.71 234.597 1039.96 233.538 1038.82C232.479 1037.68 230.626 1037.57 229.42 1038.57C228.215 1039.57 228.097 1041.32 229.156 1042.46C230.214 1043.6 232.067 1043.72 233.273 1042.71ZM219.539 1054.12C220.745 1053.12 220.862 1051.37 219.803 1050.23C218.745 1049.09 216.892 1048.98 215.686 1049.98C214.48 1050.98 214.363 1052.73 215.421 1053.87C216.48 1055.01 218.333 1055.13 219.539 1054.12ZM234.92 1018.28C236.126 1017.28 236.244 1015.53 235.185 1014.38C234.126 1013.24 232.273 1013.13 231.067 1014.13C229.862 1015.14 229.744 1016.89 230.803 1018.03C231.861 1019.17 233.714 1019.28 234.92 1018.28ZM207.451 1041.13C208.657 1040.13 208.775 1038.37 207.716 1037.23C206.657 1036.09 204.805 1035.98 203.599 1036.98C202.393 1037.98 202.275 1039.74 203.334 1040.88C204.393 1042.02 206.246 1042.13 207.451 1041.13ZM193.717 1052.54C194.923 1051.54 195.041 1049.78 193.982 1048.64C192.923 1047.5 191.07 1047.39 189.865 1048.39C188.659 1049.39 188.541 1051.15 189.6 1052.29C190.659 1053.43 192.511 1053.54 193.717 1052.54ZM221.186 1029.69C222.392 1028.69 222.509 1026.94 221.45 1025.79C220.392 1024.65 218.539 1024.54 217.333 1025.54C216.127 1026.55 216.01 1028.3 217.068 1029.44C218.127 1030.58 219.98 1030.69 221.186 1029.69ZM166.249 1075.38C167.455 1074.38 167.572 1072.63 166.513 1071.49C165.455 1070.35 163.602 1070.24 162.396 1071.24C161.19 1072.24 161.073 1073.99 162.131 1075.13C163.19 1076.27 165.043 1076.39 166.249 1075.38ZM179.983 1063.97C181.189 1062.97 181.306 1061.22 180.248 1060.08C179.189 1058.94 177.336 1058.83 176.13 1059.83C174.925 1060.83 174.807 1062.58 175.866 1063.72C176.924 1064.87 178.777 1064.98 179.983 1063.97ZM255.301 909.221C256.507 908.22 256.624 906.466 255.566 905.325C254.507 904.184 252.654 904.073 251.448 905.075C250.242 906.077 250.125 907.83 251.184 908.971C252.242 910.112 254.095 910.223 255.301 909.221ZM269.035 897.812C270.241 896.81 270.358 895.057 269.3 893.916C268.241 892.775 266.388 892.663 265.182 893.665C263.977 894.667 263.859 896.42 264.918 897.561C265.976 898.702 267.829 898.814 269.035 897.812ZM325.619 827.712C326.825 826.71 326.942 824.957 325.884 823.816C324.825 822.675 322.972 822.564 321.766 823.566C320.561 824.568 320.443 826.321 321.502 827.462C322.56 828.603 324.413 828.714 325.619 827.712ZM241.567 920.659C242.772 919.657 242.89 917.904 241.831 916.763C240.772 915.622 238.92 915.511 237.714 916.512C236.508 917.514 236.39 919.267 237.449 920.408C238.508 921.549 240.361 921.661 241.567 920.659ZM282.769 886.402C283.975 885.4 284.093 883.647 283.034 882.506C281.975 881.365 280.122 881.254 278.917 882.256C277.711 883.258 277.593 885.011 278.652 886.152C279.711 887.293 281.564 887.404 282.769 886.402ZM272.358 849.001C273.564 847.999 273.682 846.246 272.623 845.105C271.564 843.964 269.711 843.853 268.506 844.854C267.3 845.856 267.182 847.609 268.241 848.75C269.3 849.891 271.152 850.003 272.358 849.001ZM296.503 874.992C297.709 873.991 297.827 872.238 296.768 871.097C295.71 869.956 293.857 869.844 292.651 870.846C291.445 871.848 291.327 873.601 292.386 874.742C293.445 875.883 295.298 875.994 296.503 874.992ZM310.238 863.583C311.443 862.581 311.561 860.828 310.502 859.687C309.444 858.546 307.591 858.435 306.385 859.436C305.179 860.438 305.062 862.192 306.12 863.333C307.179 864.473 309.032 864.585 310.238 863.583ZM373.909 879.723C375.115 878.721 375.233 876.968 374.174 875.827C373.115 874.686 371.262 874.575 370.057 875.577C368.851 876.579 368.733 878.332 369.792 879.473C370.851 880.614 372.703 880.725 373.909 879.723ZM313.561 814.744C314.767 813.742 314.884 811.989 313.826 810.848C312.767 809.707 310.914 809.596 309.708 810.598C308.503 811.6 308.385 813.353 309.444 814.494C310.502 815.635 312.355 815.746 313.561 814.744ZM286.093 837.591C287.298 836.589 287.416 834.836 286.357 833.695C285.298 832.554 283.446 832.443 282.24 833.445C281.034 834.447 280.916 836.2 281.975 837.341C283.034 838.482 284.887 838.593 286.093 837.591ZM229.509 907.691C230.714 906.689 230.832 904.936 229.773 903.795C228.715 902.654 226.862 902.543 225.656 903.544C224.45 904.546 224.333 906.299 225.391 907.44C226.45 908.581 228.303 908.693 229.509 907.691ZM299.827 826.182C301.033 825.18 301.15 823.427 300.091 822.286C299.033 821.145 297.18 821.033 295.974 822.035C294.768 823.037 294.651 824.79 295.709 825.931C296.768 827.072 298.621 827.183 299.827 826.182ZM284.446 862.025C285.651 861.023 285.769 859.269 284.71 858.128C283.652 856.987 281.799 856.876 280.593 857.878C279.387 858.88 279.27 860.633 280.328 861.774C281.387 862.915 283.24 863.026 284.446 862.025ZM243.243 896.281C244.449 895.279 244.566 893.526 243.508 892.385C242.449 891.244 240.596 891.133 239.39 892.135C238.185 893.137 238.067 894.89 239.126 896.031C240.184 897.172 242.037 897.283 243.243 896.281ZM311.914 839.177C313.12 838.176 313.238 836.422 312.179 835.282C311.12 834.141 309.267 834.029 308.061 835.031C306.856 836.033 306.738 837.786 307.797 838.927C308.856 840.068 310.708 840.179 311.914 839.177ZM298.18 850.587C299.386 849.585 299.503 847.832 298.444 846.691C297.386 845.55 295.533 845.439 294.327 846.441C293.121 847.443 293.004 849.196 294.062 850.337C295.121 851.478 296.974 851.589 298.18 850.587ZM270.711 873.434C271.917 872.432 272.035 870.679 270.976 869.538C269.917 868.397 268.064 868.286 266.859 869.288C265.653 870.289 265.535 872.043 266.594 873.184C267.653 874.325 269.506 874.436 270.711 873.434ZM256.977 884.844C258.183 883.842 258.301 882.089 257.242 880.948C256.183 879.807 254.33 879.696 253.124 880.697C251.919 881.699 251.801 883.452 252.86 884.593C253.918 885.734 255.771 885.846 256.977 884.844ZM337.706 840.736C338.912 839.734 339.03 837.981 337.971 836.84C336.912 835.699 335.059 835.588 333.854 836.589C332.648 837.591 332.53 839.344 333.589 840.485C334.648 841.626 336.5 841.738 337.706 840.736ZM361.851 866.727C363.057 865.726 363.175 863.972 362.116 862.831C361.057 861.69 359.204 861.579 357.999 862.581C356.793 863.583 356.675 865.336 357.734 866.477C358.793 867.618 360.645 867.729 361.851 866.727ZM277.799 959.674C279.005 958.672 279.122 956.919 278.064 955.778C277.005 954.637 275.152 954.526 273.946 955.528C272.741 956.529 272.623 958.283 273.682 959.424C274.74 960.565 276.593 960.676 277.799 959.674ZM320.649 901.012C321.855 900.01 321.972 898.257 320.913 897.116C319.855 895.975 318.002 895.864 316.796 896.866C315.59 897.867 315.473 899.621 316.531 900.761C317.59 901.902 319.443 902.014 320.649 901.012ZM334.383 889.602C335.589 888.6 335.706 886.847 334.648 885.706C333.589 884.565 331.736 884.454 330.53 885.456C329.324 886.458 329.207 888.211 330.266 889.352C331.324 890.493 333.177 890.604 334.383 889.602ZM348.117 878.193C349.323 877.191 349.441 875.438 348.382 874.297C347.323 873.156 345.47 873.045 344.264 874.046C343.059 875.048 342.941 876.801 344 877.942C345.059 879.083 346.911 879.195 348.117 878.193ZM346.441 902.598C347.647 901.596 347.764 899.843 346.706 898.702C345.647 897.561 343.794 897.45 342.588 898.452C341.382 899.454 341.265 901.207 342.324 902.348C343.382 903.489 345.235 903.6 346.441 902.598ZM360.175 891.189C361.381 890.187 361.498 888.434 360.44 887.293C359.381 886.152 357.528 886.04 356.322 887.042C355.117 888.044 354.999 889.797 356.058 890.938C357.116 892.079 358.969 892.19 360.175 891.189ZM332.707 914.036C333.912 913.034 334.03 911.281 332.971 910.14C331.913 908.999 330.06 908.887 328.854 909.889C327.648 910.891 327.53 912.644 328.589 913.785C329.648 914.926 331.501 915.037 332.707 914.036ZM291.504 948.292C292.71 947.291 292.827 945.537 291.769 944.396C290.71 943.255 288.857 943.144 287.651 944.146C286.445 945.148 286.328 946.901 287.387 948.042C288.445 949.183 290.298 949.294 291.504 948.292ZM305.238 936.883C306.444 935.881 306.562 934.128 305.503 932.987C304.444 931.846 302.591 931.734 301.385 932.736C300.18 933.738 300.062 935.491 301.121 936.632C302.18 937.773 304.032 937.885 305.238 936.883ZM318.972 925.473C320.178 924.471 320.296 922.718 319.237 921.577C318.178 920.436 316.326 920.325 315.12 921.327C313.914 922.329 313.796 924.082 314.855 925.223C315.914 926.364 317.767 926.475 318.972 925.473ZM279.446 935.324C280.652 934.323 280.769 932.569 279.711 931.428C278.652 930.287 276.799 930.176 275.593 931.178C274.388 932.18 274.27 933.933 275.329 935.074C276.387 936.215 278.24 936.326 279.446 935.324ZM308.561 888.072C309.767 887.07 309.885 885.317 308.826 884.176C307.767 883.035 305.914 882.924 304.709 883.925C303.503 884.927 303.385 886.68 304.444 887.821C305.503 888.962 307.356 889.074 308.561 888.072ZM294.827 899.482C296.033 898.48 296.151 896.726 295.092 895.585C294.033 894.445 292.18 894.333 290.974 895.335C289.769 896.337 289.651 898.09 290.71 899.231C291.768 900.372 293.621 900.483 294.827 899.482ZM322.296 876.634C323.501 875.633 323.619 873.879 322.56 872.738C321.502 871.597 319.649 871.486 318.443 872.488C317.237 873.49 317.12 875.243 318.178 876.384C319.237 877.525 321.09 877.636 322.296 876.634ZM267.359 922.328C268.565 921.327 268.682 919.574 267.623 918.433C266.565 917.292 264.712 917.18 263.506 918.182C262.3 919.184 262.183 920.937 263.241 922.078C264.3 923.219 266.153 923.33 267.359 922.328ZM336.03 865.225C337.236 864.223 337.353 862.47 336.294 861.329C335.236 860.188 333.383 860.076 332.177 861.078C330.971 862.08 330.854 863.833 331.912 864.974C332.971 866.115 334.824 866.227 336.03 865.225ZM281.093 910.919C282.299 909.917 282.416 908.164 281.358 907.023C280.299 905.882 278.446 905.771 277.24 906.773C276.035 907.774 275.917 909.527 276.976 910.668C278.034 911.809 279.887 911.921 281.093 910.919ZM253.624 933.766C254.83 932.764 254.948 931.011 253.889 929.87C252.83 928.729 250.978 928.618 249.772 929.619C248.566 930.621 248.448 932.375 249.507 933.516C250.566 934.656 252.419 934.768 253.624 933.766ZM306.885 912.505C308.091 911.503 308.208 909.75 307.15 908.609C306.091 907.468 304.238 907.357 303.032 908.359C301.827 909.361 301.709 911.114 302.768 912.255C303.826 913.396 305.679 913.507 306.885 912.505ZM265.682 946.762C266.888 945.76 267.006 944.007 265.947 942.866C264.888 941.725 263.036 941.614 261.83 942.615C260.624 943.617 260.506 945.37 261.565 946.511C262.624 947.652 264.477 947.764 265.682 946.762ZM293.151 923.915C294.357 922.913 294.474 921.16 293.416 920.019C292.357 918.878 290.504 918.766 289.298 919.768C288.092 920.77 287.975 922.523 289.034 923.664C290.092 924.805 291.945 924.917 293.151 923.915ZM323.943 852.257C325.148 851.255 325.266 849.502 324.207 848.361C323.148 847.22 321.296 847.109 320.09 848.11C318.884 849.112 318.766 850.865 319.825 852.006C320.884 853.147 322.737 853.259 323.943 852.257ZM237.802 785.719C239.008 784.717 239.126 782.964 238.067 781.823C237.008 780.682 235.155 780.571 233.949 781.573C232.744 782.575 232.626 784.328 233.685 785.469C234.744 786.61 236.596 786.721 237.802 785.719ZM181.218 855.819C182.424 854.817 182.542 853.064 181.483 851.923C180.424 850.782 178.571 850.671 177.366 851.672C176.16 852.674 176.042 854.427 177.101 855.568C178.16 856.709 180.012 856.821 181.218 855.819ZM265.271 762.872C266.476 761.87 266.594 760.117 265.535 758.976C264.476 757.835 262.624 757.724 261.418 758.726C260.212 759.728 260.094 761.481 261.153 762.622C262.212 763.763 264.065 763.874 265.271 762.872ZM236.155 810.125C237.361 809.123 237.479 807.37 236.42 806.229C235.361 805.088 233.508 804.976 232.303 805.978C231.097 806.98 230.979 808.733 232.038 809.874C233.097 811.015 234.949 811.126 236.155 810.125ZM249.89 798.715C251.095 797.713 251.213 795.96 250.154 794.819C249.095 793.678 247.243 793.567 246.037 794.569C244.831 795.57 244.713 797.324 245.772 798.465C246.831 799.605 248.684 799.717 249.89 798.715ZM263.624 787.305C264.829 786.304 264.947 784.55 263.888 783.409C262.83 782.268 260.977 782.157 259.771 783.159C258.565 784.161 258.448 785.914 259.506 787.055C260.565 788.196 262.418 788.307 263.624 787.305ZM208.687 833C209.893 831.998 210.01 830.244 208.951 829.104C207.893 827.963 206.04 827.851 204.834 828.853C203.628 829.855 203.511 831.608 204.569 832.749C205.628 833.89 207.481 834.001 208.687 833ZM222.421 821.59C223.627 820.588 223.744 818.835 222.686 817.694C221.627 816.553 219.774 816.442 218.568 817.443C217.363 818.445 217.245 820.199 218.304 821.339C219.362 822.48 221.215 822.592 222.421 821.59ZM194.952 844.437C196.158 843.435 196.276 841.682 195.217 840.541C194.158 839.4 192.306 839.289 191.1 840.291C189.894 841.292 189.776 843.046 190.835 844.187C191.894 845.328 193.747 845.439 194.952 844.437ZM251.536 774.337C252.742 773.336 252.86 771.582 251.801 770.442C250.742 769.301 248.89 769.189 247.684 770.191C246.478 771.193 246.36 772.946 247.419 774.087C248.478 775.228 250.331 775.339 251.536 774.337ZM253.213 749.932C254.418 748.93 254.536 747.177 253.477 746.036C252.419 744.895 250.566 744.784 249.36 745.785C248.154 746.787 248.037 748.541 249.095 749.682C250.154 750.822 252.007 750.934 253.213 749.932ZM239.478 761.342C240.684 760.34 240.802 758.587 239.743 757.446C238.684 756.305 236.832 756.193 235.626 757.195C234.42 758.197 234.302 759.95 235.361 761.091C236.42 762.232 238.273 762.343 239.478 761.342ZM198.276 795.598C199.481 794.596 199.599 792.843 198.54 791.702C197.482 790.561 195.629 790.45 194.423 791.452C193.217 792.454 193.1 794.207 194.158 795.348C195.217 796.489 197.07 796.6 198.276 795.598ZM212.01 784.189C213.216 783.187 213.333 781.434 212.275 780.293C211.216 779.152 209.363 779.04 208.157 780.042C206.952 781.044 206.834 782.797 207.893 783.938C208.951 785.079 210.804 785.191 212.01 784.189ZM225.744 772.779C226.95 771.777 227.068 770.024 226.009 768.883C224.95 767.742 223.097 767.631 221.892 768.633C220.686 769.634 220.568 771.388 221.627 772.529C222.686 773.67 224.538 773.781 225.744 772.779ZM196.629 820.031C197.835 819.03 197.952 817.277 196.894 816.136C195.835 814.995 193.982 814.883 192.776 815.885C191.57 816.887 191.453 818.64 192.512 819.781C193.57 820.922 195.423 821.033 196.629 820.031ZM224.097 797.185C225.303 796.183 225.421 794.429 224.362 793.288C223.303 792.148 221.45 792.036 220.245 793.038C219.039 794.04 218.921 795.793 219.98 796.934C221.039 798.075 222.892 798.186 224.097 797.185ZM182.895 831.441C184.1 830.439 184.218 828.686 183.159 827.545C182.101 826.404 180.248 826.293 179.042 827.295C177.836 828.297 177.718 830.05 178.777 831.191C179.836 832.332 181.689 832.443 182.895 831.441ZM210.363 808.594C211.569 807.592 211.686 805.839 210.628 804.698C209.569 803.557 207.716 803.446 206.511 804.448C205.305 805.449 205.187 807.203 206.246 808.344C207.304 809.485 209.157 809.596 210.363 808.594ZM169.16 842.851C170.366 841.849 170.484 840.096 169.425 838.955C168.366 837.814 166.514 837.703 165.308 838.704C164.102 839.706 163.984 841.459 165.043 842.6C166.102 843.741 167.955 843.853 169.16 842.851ZM219.098 870.401C220.303 869.399 220.421 867.646 219.362 866.505C218.304 865.364 216.451 865.253 215.245 866.254C214.039 867.256 213.922 869.009 214.98 870.15C216.039 871.291 217.892 871.403 219.098 870.401ZM274.035 824.707C275.24 823.705 275.358 821.952 274.299 820.811C273.241 819.67 271.388 819.558 270.182 820.56C268.976 821.562 268.859 823.315 269.917 824.456C270.976 825.597 272.829 825.709 274.035 824.707ZM287.769 813.297C288.975 812.295 289.092 810.542 288.034 809.401C286.975 808.26 285.122 808.149 283.916 809.151C282.71 810.152 282.593 811.906 283.652 813.047C284.71 814.188 286.563 814.299 287.769 813.297ZM260.3 836.144C261.506 835.142 261.624 833.389 260.565 832.248C259.506 831.107 257.654 830.996 256.448 831.998C255.242 833 255.124 834.753 256.183 835.894C257.242 837.035 259.095 837.146 260.3 836.144ZM232.832 858.991C234.038 857.989 234.155 856.236 233.097 855.095C232.038 853.954 230.185 853.843 228.979 854.845C227.773 855.847 227.656 857.6 228.715 858.741C229.773 859.882 231.626 859.993 232.832 858.991ZM277.358 775.896C278.564 774.894 278.681 773.141 277.623 772C276.564 770.859 274.711 770.748 273.505 771.749C272.299 772.751 272.182 774.504 273.241 775.645C274.299 776.786 276.152 776.898 277.358 775.896ZM258.624 860.55C259.83 859.548 259.948 857.795 258.889 856.654C257.83 855.513 255.977 855.401 254.771 856.403C253.566 857.405 253.448 859.158 254.507 860.299C255.565 861.44 257.418 861.552 258.624 860.55ZM244.89 871.959C246.096 870.957 246.213 869.204 245.154 868.063C244.096 866.922 242.243 866.811 241.037 867.813C239.831 868.815 239.714 870.568 240.772 871.709C241.831 872.85 243.684 872.961 244.89 871.959ZM231.155 883.369C232.361 882.367 232.479 880.614 231.42 879.473C230.362 878.332 228.509 878.221 227.303 879.222C226.097 880.224 225.98 881.977 227.038 883.118C228.097 884.259 229.95 884.371 231.155 883.369ZM205.363 881.783C206.569 880.781 206.687 879.028 205.628 877.887C204.569 876.746 202.717 876.634 201.511 877.636C200.305 878.638 200.187 880.391 201.246 881.532C202.305 882.673 204.158 882.784 205.363 881.783ZM217.421 894.779C218.627 893.777 218.745 892.023 217.686 890.882C216.627 889.742 214.774 889.63 213.569 890.632C212.363 891.634 212.245 893.387 213.304 894.528C214.363 895.669 216.216 895.78 217.421 894.779ZM301.474 801.832C302.679 800.83 302.797 799.077 301.738 797.936C300.68 796.795 298.827 796.684 297.621 797.685C296.415 798.687 296.298 800.44 297.356 801.581C298.415 802.722 300.268 802.834 301.474 801.832ZM246.537 847.526C247.743 846.524 247.86 844.771 246.801 843.63C245.743 842.489 243.89 842.378 242.684 843.379C241.478 844.381 241.361 846.135 242.419 847.276C243.478 848.416 245.331 848.528 246.537 847.526ZM207.01 857.377C208.216 856.375 208.334 854.622 207.275 853.481C206.216 852.34 204.364 852.229 203.158 853.231C201.952 854.233 201.834 855.986 202.893 857.127C203.952 858.268 205.805 858.379 207.01 857.377ZM193.276 868.787C194.482 867.785 194.6 866.032 193.541 864.891C192.482 863.75 190.629 863.639 189.424 864.64C188.218 865.642 188.1 867.395 189.159 868.536C190.218 869.677 192.07 869.789 193.276 868.787ZM220.745 845.94C221.95 844.938 222.068 843.185 221.009 842.044C219.951 840.903 218.098 840.791 216.892 841.793C215.686 842.795 215.569 844.548 216.627 845.689C217.686 846.83 219.539 846.942 220.745 845.94ZM234.479 834.53C235.685 833.528 235.802 831.775 234.744 830.634C233.685 829.493 231.832 829.382 230.626 830.384C229.42 831.386 229.303 833.139 230.362 834.28C231.42 835.421 233.273 835.532 234.479 834.53ZM289.416 788.836C290.622 787.834 290.739 786.081 289.68 784.94C288.622 783.799 286.769 783.688 285.563 784.69C284.357 785.691 284.24 787.445 285.298 788.585C286.357 789.726 288.21 789.838 289.416 788.836ZM261.947 811.683C263.153 810.681 263.271 808.928 262.212 807.787C261.153 806.646 259.3 806.535 258.095 807.537C256.889 808.538 256.771 810.292 257.83 811.433C258.889 812.574 260.742 812.685 261.947 811.683ZM275.682 800.273C276.887 799.272 277.005 797.518 275.946 796.377C274.888 795.236 273.035 795.125 271.829 796.127C270.623 797.129 270.506 798.882 271.564 800.023C272.623 801.164 274.476 801.275 275.682 800.273ZM248.213 823.121C249.419 822.119 249.536 820.365 248.478 819.224C247.419 818.084 245.566 817.972 244.361 818.974C243.155 819.976 243.037 821.729 244.096 822.87C245.154 824.011 247.007 824.122 248.213 823.121ZM189.541 733.736C190.747 732.734 190.864 730.981 189.806 729.84C188.747 728.699 186.894 728.588 185.689 729.589C184.483 730.591 184.365 732.344 185.424 733.485C186.483 734.626 188.335 734.738 189.541 733.736ZM148.338 767.993C149.544 766.991 149.662 765.238 148.603 764.097C147.544 762.956 145.692 762.844 144.486 763.846C143.28 764.848 143.162 766.601 144.221 767.742C145.28 768.883 147.133 768.994 148.338 767.993ZM217.01 710.889C218.215 709.887 218.333 708.134 217.274 706.993C216.216 705.852 214.363 705.741 213.157 706.742C211.951 707.744 211.834 709.497 212.892 710.638C213.951 711.779 215.804 711.891 217.01 710.889ZM187.894 758.141C189.1 757.139 189.218 755.386 188.159 754.245C187.1 753.104 185.247 752.993 184.042 753.995C182.836 754.997 182.718 756.75 183.777 757.891C184.836 759.032 186.688 759.143 187.894 758.141ZM184.571 806.98C185.777 805.978 185.894 804.225 184.836 803.084C183.777 801.943 181.924 801.832 180.718 802.834C179.513 803.835 179.395 805.589 180.454 806.73C181.512 807.871 183.365 807.982 184.571 806.98ZM162.102 756.583C163.308 755.581 163.426 753.828 162.367 752.687C161.308 751.546 159.455 751.435 158.249 752.436C157.044 753.438 156.926 755.192 157.985 756.333C159.044 757.473 160.896 757.585 162.102 756.583ZM175.836 745.173C177.042 744.172 177.16 742.418 176.101 741.277C175.042 740.136 173.189 740.025 171.984 741.027C170.778 742.029 170.66 743.782 171.719 744.923C172.778 746.064 174.63 746.175 175.836 745.173ZM203.305 722.326C204.511 721.324 204.628 719.571 203.57 718.43C202.511 717.289 200.658 717.178 199.452 718.18C198.246 719.182 198.129 720.935 199.187 722.076C200.246 723.217 202.099 723.328 203.305 722.326ZM160.455 781.016C161.661 780.014 161.779 778.261 160.72 777.12C159.661 775.979 157.808 775.868 156.602 776.87C155.397 777.872 155.279 779.625 156.338 780.766C157.397 781.907 159.249 782.018 160.455 781.016ZM174.189 769.607C175.395 768.605 175.513 766.852 174.454 765.711C173.395 764.57 171.542 764.458 170.337 765.46C169.131 766.462 169.013 768.215 170.072 769.356C171.131 770.497 172.984 770.608 174.189 769.607ZM146.721 792.454C147.927 791.452 148.044 789.699 146.986 788.558C145.927 787.417 144.074 787.305 142.868 788.307C141.663 789.309 141.545 791.062 142.604 792.203C143.662 793.344 145.515 793.455 146.721 792.454ZM132.987 803.863C134.193 802.861 134.31 801.108 133.251 799.967C132.193 798.826 130.34 798.715 129.134 799.717C127.928 800.719 127.811 802.472 128.869 803.613C129.928 804.754 131.781 804.865 132.987 803.863ZM150.044 743.615C151.25 742.613 151.368 740.86 150.309 739.719C149.25 738.578 147.397 738.467 146.192 739.469C144.986 740.47 144.868 742.223 145.927 743.364C146.986 744.505 148.838 744.617 150.044 743.615ZM163.778 732.205C164.984 731.203 165.102 729.45 164.043 728.309C162.984 727.168 161.132 727.057 159.926 728.059C158.72 729.061 158.602 730.814 159.661 731.955C160.72 733.096 162.573 733.207 163.778 732.205ZM134.663 779.458C135.869 778.456 135.986 776.703 134.928 775.562C133.869 774.421 132.016 774.31 130.81 775.311C129.605 776.313 129.487 778.066 130.546 779.207C131.604 780.348 133.457 780.46 134.663 779.458ZM177.513 720.768C178.718 719.766 178.836 718.013 177.777 716.872C176.719 715.731 174.866 715.62 173.66 716.621C172.454 717.623 172.337 719.377 173.395 720.517C174.454 721.658 176.307 721.77 177.513 720.768ZM108.841 777.872C110.047 776.87 110.165 775.117 109.106 773.976C108.047 772.835 106.195 772.723 104.989 773.725C103.783 774.727 103.665 776.48 104.724 777.621C105.783 778.762 107.636 778.873 108.841 777.872ZM122.576 766.462C123.781 765.46 123.899 763.707 122.84 762.566C121.782 761.425 119.929 761.314 118.723 762.316C117.517 763.317 117.4 765.071 118.458 766.212C119.517 767.353 121.37 767.464 122.576 766.462ZM136.31 755.052C137.516 754.051 137.633 752.297 136.575 751.156C135.516 750.015 133.663 749.904 132.457 750.906C131.251 751.908 131.134 753.661 132.193 754.802C133.251 755.943 135.104 756.054 136.31 755.052ZM191.247 709.358C192.453 708.356 192.57 706.603 191.512 705.462C190.453 704.321 188.6 704.21 187.394 705.212C186.189 706.214 186.071 707.967 187.13 709.108C188.188 710.249 190.041 710.36 191.247 709.358ZM204.981 697.949C206.187 696.947 206.304 695.194 205.246 694.053C204.187 692.912 202.334 692.8 201.129 693.802C199.923 694.804 199.805 696.557 200.864 697.698C201.922 698.839 203.775 698.95 204.981 697.949ZM120.929 790.895C122.135 789.893 122.252 788.14 121.194 786.999C120.135 785.858 118.282 785.747 117.076 786.749C115.87 787.751 115.753 789.504 116.812 790.645C117.87 791.786 119.723 791.897 120.929 790.895ZM201.658 746.787C202.864 745.786 202.981 744.032 201.923 742.891C200.864 741.75 199.011 741.639 197.805 742.641C196.599 743.643 196.482 745.396 197.54 746.537C198.599 747.678 200.452 747.789 201.658 746.787ZM215.392 735.378C216.598 734.376 216.716 732.623 215.657 731.482C214.598 730.341 212.745 730.229 211.539 731.231C210.334 732.233 210.216 733.986 211.275 735.127C212.334 736.268 214.186 736.38 215.392 735.378ZM229.126 723.968C230.332 722.966 230.45 721.213 229.391 720.072C228.332 718.931 226.479 718.82 225.274 719.822C224.068 720.824 223.95 722.577 225.009 723.718C226.068 724.859 227.921 724.97 229.126 723.968ZM349.823 853.899C351.029 852.897 351.146 851.144 350.088 850.003C349.029 848.862 347.176 848.75 345.97 849.752C344.764 850.754 344.647 852.507 345.706 853.648C346.764 854.789 348.617 854.9 349.823 853.899ZM170.866 818.473C172.072 817.471 172.19 815.718 171.131 814.577C170.072 813.436 168.219 813.325 167.013 814.327C165.808 815.329 165.69 817.082 166.749 818.223C167.808 819.364 169.66 819.475 170.866 818.473ZM172.542 794.068C173.748 793.066 173.866 791.313 172.807 790.172C171.748 789.031 169.896 788.92 168.69 789.921C167.484 790.923 167.366 792.676 168.425 793.817C169.484 794.958 171.337 795.07 172.542 794.068ZM213.745 759.811C214.951 758.809 215.069 757.056 214.01 755.915C212.951 754.774 211.098 754.663 209.892 755.665C208.687 756.666 208.569 758.42 209.628 759.561C210.687 760.702 212.539 760.813 213.745 759.811ZM200.011 771.221C201.217 770.219 201.334 768.466 200.276 767.325C199.217 766.184 197.364 766.072 196.158 767.074C194.953 768.076 194.835 769.829 195.894 770.97C196.952 772.111 198.805 772.222 200.011 771.221ZM186.277 782.63C187.483 781.629 187.6 779.875 186.541 778.734C185.483 777.593 183.63 777.482 182.424 778.484C181.218 779.486 181.101 781.239 182.159 782.38C183.218 783.521 185.071 783.632 186.277 782.63ZM158.808 805.477C160.014 804.475 160.132 802.722 159.073 801.581C158.014 800.44 156.161 800.329 154.956 801.331C153.75 802.333 153.632 804.086 154.691 805.227C155.75 806.368 157.602 806.479 158.808 805.477ZM145.074 816.887C146.28 815.885 146.397 814.132 145.339 812.991C144.28 811.85 142.427 811.739 141.221 812.74C140.016 813.742 139.898 815.496 140.957 816.636C142.015 817.777 143.868 817.889 145.074 816.887ZM227.479 748.373C228.685 747.372 228.803 745.619 227.744 744.478C226.685 743.337 224.832 743.225 223.627 744.227C222.421 745.229 222.303 746.982 223.362 748.123C224.421 749.264 226.274 749.375 227.479 748.373ZM157.161 829.883C158.367 828.881 158.485 827.128 157.426 825.987C156.367 824.846 154.514 824.735 153.309 825.736C152.103 826.738 151.985 828.491 153.044 829.632C154.103 830.773 155.955 830.885 157.161 829.883ZM241.214 736.936C242.419 735.934 242.537 734.181 241.478 733.04C240.42 731.899 238.567 731.788 237.361 732.79C236.155 733.792 236.038 735.545 237.096 736.686C238.155 737.827 240.008 737.938 241.214 736.936ZM398.113 905.854C399.319 904.852 399.437 903.099 398.378 901.958C397.319 900.817 395.466 900.706 394.261 901.708C393.055 902.71 392.937 904.463 393.996 905.604C395.055 906.745 396.907 906.856 398.113 905.854ZM386.055 892.858C387.261 891.857 387.379 890.103 386.32 888.962C385.261 887.821 383.409 887.71 382.203 888.712C380.997 889.714 380.879 891.467 381.938 892.608C382.997 893.749 384.85 893.86 386.055 892.858ZM372.321 904.268C373.527 903.266 373.645 901.513 372.586 900.372C371.527 899.231 369.674 899.12 368.468 900.122C367.263 901.123 367.145 902.877 368.204 904.018C369.263 905.159 371.115 905.27 372.321 904.268ZM358.587 915.678C359.793 914.676 359.91 912.923 358.852 911.782C357.793 910.641 355.94 910.529 354.734 911.531C353.528 912.533 353.411 914.286 354.47 915.427C355.528 916.568 357.381 916.679 358.587 915.678ZM302.003 985.777C303.209 984.775 303.327 983.022 302.268 981.881C301.209 980.74 299.356 980.629 298.15 981.631C296.945 982.632 296.827 984.386 297.886 985.527C298.944 986.668 300.797 986.779 302.003 985.777ZM356.94 940.083C358.146 939.081 358.263 937.328 357.205 936.187C356.146 935.046 354.293 934.935 353.087 935.937C351.882 936.938 351.764 938.692 352.823 939.833C353.881 940.974 355.734 941.085 356.94 940.083ZM370.674 928.673C371.88 927.672 371.998 925.918 370.939 924.777C369.88 923.636 368.027 923.525 366.821 924.527C365.616 925.529 365.498 927.282 366.557 928.423C367.616 929.564 369.468 929.675 370.674 928.673ZM384.408 917.264C385.614 916.262 385.732 914.509 384.673 913.368C383.614 912.227 381.762 912.115 380.556 913.117C379.35 914.119 379.232 915.872 380.291 917.013C381.35 918.154 383.203 918.266 384.408 917.264ZM315.737 974.368C316.943 973.366 317.061 971.613 316.002 970.472C314.943 969.331 313.09 969.219 311.885 970.221C310.679 971.223 310.561 972.976 311.62 974.117C312.679 975.258 314.531 975.369 315.737 974.368ZM343.206 951.52C344.412 950.519 344.529 948.765 343.47 947.624C342.412 946.484 340.559 946.372 339.353 947.374C338.147 948.376 338.03 950.129 339.088 951.27C340.147 952.411 342 952.522 343.206 951.52ZM329.472 962.93C330.677 961.928 330.795 960.175 329.736 959.034C328.677 957.893 326.825 957.782 325.619 958.784C324.413 959.786 324.295 961.539 325.354 962.68C326.413 963.821 328.266 963.932 329.472 962.93ZM344.853 927.087C346.058 926.085 346.176 924.332 345.117 923.191C344.059 922.05 342.206 921.939 341 922.941C339.794 923.943 339.677 925.696 340.735 926.837C341.794 927.978 343.647 928.089 344.853 927.087ZM317.384 949.934C318.59 948.932 318.708 947.179 317.649 946.038C316.59 944.897 314.737 944.786 313.532 945.788C312.326 946.79 312.208 948.543 313.267 949.684C314.326 950.825 316.178 950.936 317.384 949.934ZM303.65 961.344C304.856 960.342 304.973 958.589 303.915 957.448C302.856 956.307 301.003 956.196 299.797 957.197C298.592 958.199 298.474 959.952 299.533 961.093C300.591 962.234 302.444 962.346 303.65 961.344ZM331.119 938.497C332.324 937.495 332.442 935.742 331.383 934.601C330.324 933.46 328.472 933.349 327.266 934.35C326.06 935.352 325.942 937.105 327.001 938.246C328.06 939.387 329.913 939.499 331.119 938.497ZM289.916 972.753C291.122 971.752 291.239 969.999 290.18 968.858C289.122 967.717 287.269 967.605 286.063 968.607C284.857 969.609 284.74 971.362 285.798 972.503C286.857 973.644 288.71 973.755 289.916 972.753Z" fill="white"/>
</g>
<path d="M168.266 37.7206L0 199.511" stroke="url(#paint3_linear_224_2728)" stroke-width="3.5" stroke-miterlimit="10"/>
<path d="M855.034 -3.91357e-05L1008.1 174.78" stroke="url(#paint4_linear_224_2728)" stroke-width="3.5" stroke-miterlimit="10"/>
</g>
<defs>
<filter id="filter0_d_224_2728" x="257.27" y="-55.5815" width="2011.36" height="1481.72" filterUnits="userSpaceOnUse" color-interpolation-filters="sRGB">
<feFlood flood-opacity="0" result="BackgroundImageFix"/>
<feColorMatrix in="SourceAlpha" type="matrix" values="0 0 0 0 0 0 0 0 0 0 0 0 0 0 0 0 0 0 127 0" result="hardAlpha"/>
<feOffset dy="-10"/>
<feGaussianBlur stdDeviation="10.5"/>
<feComposite in2="hardAlpha" operator="out"/>
<feColorMatrix type="matrix" values="0 0 0 0 0 0 0 0 0 0 0 0 0 0 0 0 0 0 0.25 0"/>
<feBlend mode="normal" in2="BackgroundImageFix" result="effect1_dropShadow_224_2728"/>
<feBlend mode="normal" in="SourceGraphic" in2="effect1_dropShadow_224_2728" result="shape"/>
</filter>
<filter id="filter1_d_224_2728" x="347.304" y="39.6289" width="2061.52" height="1397.36" filterUnits="userSpaceOnUse" color-interpolation-filters="sRGB">
<feFlood flood-opacity="0" result="BackgroundImageFix"/>
<feColorMatrix in="SourceAlpha" type="matrix" values="0 0 0 0 0 0 0 0 0 0 0 0 0 0 0 0 0 0 127 0" result="hardAlpha"/>
<feOffset dy="-10"/>
<feGaussianBlur stdDeviation="10.5"/>
<feComposite in2="hardAlpha" operator="out"/>
<feColorMatrix type="matrix" values="0 0 0 0 0 0 0 0 0 0 0 0 0 0 0 0 0 0 0.25 0"/>
<feBlend mode="normal" in2="BackgroundImageFix" result="effect1_dropShadow_224_2728"/>
<feBlend mode="normal" in="SourceGraphic" in2="effect1_dropShadow_224_2728" result="shape"/>
</filter>
<filter id="filter2_d_224_2728" x="325.784" y="117.928" width="2143.62" height="1262.5" filterUnits="userSpaceOnUse" color-interpolation-filters="sRGB">
<feFlood flood-opacity="0" result="BackgroundImageFix"/>
<feColorMatrix in="SourceAlpha" type="matrix" values="0 0 0 0 0 0 0 0 0 0 0 0 0 0 0 0 0 0 127 0" result="hardAlpha"/>
<feOffset dy="-10"/>
<feGaussianBlur stdDeviation="10.5"/>
<feComposite in2="hardAlpha" operator="out"/>
<feColorMatrix type="matrix" values="0 0 0 0 0 0 0 0 0 0 0 0 0 0 0 0 0 0 0.25 0"/>
<feBlend mode="normal" in2="BackgroundImageFix" result="effect1_dropShadow_224_2728"/>
<feBlend mode="normal" in="SourceGraphic" in2="effect1_dropShadow_224_2728" result="shape"/>
</filter>
<linearGradient id="paint0_linear_224_2728" x1="1375.79" y1="1428.54" x2="1381.21" y2="105.36" gradientUnits="userSpaceOnUse">
<stop offset="0.260417" stop-color="#EC7E16"/>
<stop offset="1" stop-color="#FFB26B"/>
</linearGradient>
<linearGradient id="paint1_linear_224_2728" x1="1431.51" y1="121.141" x2="1384.86" y2="1407.07" gradientUnits="userSpaceOnUse">
<stop offset="0.229167" stop-color="#6B3804"/>
<stop offset="1" stop-color="#B46717"/>
</linearGradient>
<linearGradient id="paint2_linear_224_2728" x1="184.102" y1="814.469" x2="-41.2718" y2="1014.33" gradientUnits="userSpaceOnUse">
<stop offset="0.0001" stop-color="#E9B05B"/>
<stop offset="1" stop-color="#AD5D13"/>
</linearGradient>
<linearGradient id="paint3_linear_224_2728" x1="84.1332" y1="37.7206" x2="84.1332" y2="199.511" gradientUnits="userSpaceOnUse">
<stop offset="0.229167" stop-color="#6B3804"/>
<stop offset="1" stop-color="#B46717"/>
</linearGradient>
<linearGradient id="paint4_linear_224_2728" x1="846.517" y1="79.2009" x2="1016.42" y2="97.471" gradientUnits="userSpaceOnUse">
<stop stop-color="#E17917"/>
<stop offset="1" stop-color="#FFB672"/>
</linearGradient>
<clipPath id="clip0_224_2728">
<rect width="1920" height="880" fill="white"/>
</clipPath>
</defs>
</svg>
