<svg width="536" height="360" viewBox="0 0 536 360" fill="none" xmlns="http://www.w3.org/2000/svg">
<g clip-path="url(#clip0_227_578)">
<g filter="url(#filter0_d_227_578)">
<rect width="535.752" height="578.675" rx="40" transform="matrix(1 1.77395e-07 1.72332e-07 -1 0.248291 578.879)" fill="url(#paint0_linear_227_578)"/>
</g>
<g opacity="0.4" clip-path="url(#clip1_227_578)">
<path d="M931.093 1053.14L965.005 1012.47V970.778L931.093 930.105L965.005 889.432V847.744L931.093 807.072L965.005 766.399V724.711L931.093 684.038L965.005 643.365V601.677L931.093 561.004L965.005 520.332V478.644L931.093 437.971L965.005 397.298V355.632L931.093 314.959L965.005 274.286V232.598L931.093 191.925L965.005 151.252V109.564L931.093 68.8916L965.005 28.2188V0.203613H962.303L917.999 53.3396L879.823 7.54761L885.932 0.203613H847.49L853.599 7.54761L815.423 53.3396L777.247 7.54761L783.375 0.203613H744.933L751.061 7.54761L712.885 53.3396L674.709 7.54761L680.837 0.203613H642.395L648.523 7.54761L610.347 53.3396L572.171 7.54761L578.299 0.203613H539.857L545.985 7.54761L507.809 53.3396L469.633 7.54761L475.761 0.203613H437.319L443.447 7.54761L405.271 53.3396L367.095 7.54761L373.223 0.203613H334.781L340.909 7.54761L302.733 53.3396L264.557 7.54761L270.685 0.203613H232.242L238.37 7.54761L200.195 53.3396L162.019 7.54761L168.147 0.203613H129.704L135.813 7.54761L97.6374 53.3396L59.4616 7.54761L65.5895 0.203613H27.1472L33.2752 7.54761L-4.90067 53.3396L-43.0765 7.54761L-36.9486 0.203613H-75.3909L-69.282 7.54761L-107.458 53.3396L-145.634 7.54761L-139.506 0.203613H-177.948L-171.839 7.54761L-210.015 53.3396L-248.362 7.54761L-242.234 0.203613H-280.676L-274.568 7.54761L-312.743 53.3396L-350.919 7.54761L-344.81 0.203613H-383.253L-377.144 7.54761L-415.32 53.3396L-459.604 0.203613H-462.307V28.37L-428.394 69.0428L-462.307 109.716V151.404L-428.394 192.076L-462.307 232.728V274.416L-428.394 315.088L-462.307 355.74V397.406L-428.394 438.079L-462.307 478.752V520.44L-428.394 561.112L-462.307 601.764V643.43L-428.394 684.103L-462.307 724.776V766.464L-428.394 807.136L-462.307 847.788V889.476L-428.394 930.148L-462.307 970.8V1012.47L-428.394 1053.14L-450.945 1080.2H-424.74L-415.281 1068.86L-405.823 1080.2H-379.618L-402.169 1053.14L-363.993 1007.35L-325.818 1053.14L-348.369 1080.2H-322.164L-312.705 1068.86L-303.247 1080.2H-277.042L-299.593 1053.16L-261.417 1007.37L-223.241 1053.16L-245.793 1080.2H-219.587L-210.129 1068.86L-200.671 1080.2H-174.465L-197.017 1053.16L-158.841 1007.37L-120.665 1053.16L-143.217 1080.2H-117.011L-107.553 1068.86L-98.0946 1080.2H-71.8892L-94.4407 1053.16L-56.2649 1007.37L-18.089 1053.16L-40.6406 1080.2H-14.4351L-4.97681 1068.86L4.48152 1080.2H30.6869L8.13543 1053.16L46.3113 1007.37L84.4871 1053.16L61.9356 1080.2H88.141L97.5993 1068.86L107.058 1080.2H133.263L110.712 1053.16L148.887 1007.37L187.063 1053.16L164.512 1080.2H190.717L200.176 1068.86L209.634 1080.2H235.839L213.288 1053.16L251.464 1007.37L289.639 1053.16L267.088 1080.2H293.293L302.752 1068.86L312.21 1080.2H338.415L315.864 1053.16L354.04 1007.37L392.216 1053.16L369.664 1080.2H395.87L405.328 1068.86L414.786 1080.2H440.992L418.44 1053.16L456.616 1007.37L494.792 1053.16L472.24 1080.2H498.446L507.904 1068.86L517.362 1080.2H543.568L521.016 1053.16L559.192 1007.37L597.368 1053.16L574.816 1080.2H601.022L610.48 1068.86L619.938 1080.2H646.144L623.592 1053.16L661.768 1007.37L699.944 1053.16L677.393 1080.2H703.598L713.056 1068.86L722.515 1080.2H748.72L726.169 1053.16L764.344 1007.37L802.52 1053.16L779.969 1080.2H806.174L815.633 1068.86L825.091 1080.2H851.296L828.745 1053.16L866.921 1007.37L905.096 1053.16L882.545 1080.23H908.75L918.209 1068.89L927.667 1080.23H953.873L931.321 1053.16L931.093 1053.14ZM956.175 868.632L917.999 914.424L879.823 868.632L917.999 822.84L956.175 868.632ZM751.061 499.596L712.885 545.388L674.709 499.596L712.885 453.804L751.061 499.596ZM725.978 438.079L764.154 392.287L802.33 438.079L764.154 483.871L725.978 438.079ZM661.597 483.871L623.421 438.079L661.597 392.287L699.773 438.079L661.597 483.871ZM648.504 499.574L610.328 545.366L572.152 499.574L610.328 453.782L648.504 499.574ZM559.04 483.871L520.864 438.079L559.04 392.287L597.216 438.079L559.04 483.871ZM545.947 499.574L507.771 545.366L469.595 499.574L507.771 453.782L545.947 499.574ZM456.483 483.871L418.307 438.079L456.483 392.287L494.659 438.079L456.483 483.871ZM443.39 499.574L405.214 545.366L367.038 499.574L405.214 453.782L443.39 499.574ZM353.926 483.871L315.75 438.079L353.926 392.287L392.101 438.079L353.926 483.871ZM340.832 499.574L302.657 545.366L264.481 499.574L302.657 453.782L340.832 499.574ZM251.368 483.871L213.193 438.079L251.368 392.287L289.544 438.079L251.368 483.871ZM238.275 499.574L200.099 545.366L161.924 499.574L200.099 453.782L238.275 499.574ZM148.811 483.871L110.635 438.079L148.811 392.287L186.987 438.079L148.811 483.871ZM135.718 499.574L97.5423 545.366L59.3664 499.574L97.5423 453.782L135.718 499.574ZM46.2542 483.871L8.07834 438.079L46.2542 392.287L84.43 438.079L46.2542 483.871ZM33.161 499.574L-5.01488 545.366L-43.1907 499.574L-5.01488 453.782L33.161 499.574ZM-56.303 483.871L-94.4788 438.079L-56.303 392.287L-18.1271 438.079L-56.303 483.871ZM-69.3961 499.574L-107.572 545.366L-145.748 499.574L-107.572 453.782L-69.3961 499.574ZM-158.86 483.871L-197.036 438.079L-158.86 392.287L-120.684 438.079L-158.86 483.871ZM-171.953 499.574L-210.129 545.366L-248.305 499.574L-210.129 453.782L-171.953 499.574ZM-261.417 483.871L-299.593 438.079L-261.417 392.287L-223.241 438.079L-261.417 483.871ZM-223.241 561.091L-261.417 606.883L-299.593 561.091L-261.417 515.299L-223.241 561.091ZM-210.148 576.816L-171.972 622.608L-210.148 668.4L-248.324 622.608L-210.148 576.816ZM-197.055 561.091L-158.879 515.299L-120.703 561.091L-158.879 606.883L-197.055 561.091ZM-107.591 576.816L-69.4152 622.608L-107.591 668.4L-145.767 622.608L-107.591 576.816ZM-94.4978 561.091L-56.322 515.299L-18.1461 561.091L-56.322 606.883L-94.4978 561.091ZM-5.0339 576.816L33.1419 622.608L-5.0339 668.4L-43.2097 622.608L-5.0339 576.816ZM8.05932 561.091L46.2352 515.299L84.411 561.091L46.2352 606.883L8.05932 561.091ZM97.5233 576.816L135.699 622.608L97.5233 668.4L59.3474 622.608L97.5233 576.816ZM110.616 561.091L148.792 515.299L186.968 561.091L148.792 606.883L110.616 561.091ZM200.08 576.816L238.256 622.608L200.08 668.4L161.905 622.608L200.08 576.816ZM213.174 561.091L251.349 515.299L289.525 561.091L251.349 606.883L213.174 561.091ZM302.638 576.816L340.813 622.608L302.638 668.4L264.462 622.608L302.638 576.816ZM315.731 561.091L353.907 515.299L392.082 561.091L353.907 606.883L315.731 561.091ZM405.195 576.816L443.37 622.608L405.195 668.4L367.019 622.608L405.195 576.816ZM418.288 561.091L456.464 515.299L494.64 561.091L456.464 606.883L418.288 561.091ZM507.752 576.816L545.928 622.608L507.752 668.4L469.576 622.608L507.752 576.816ZM520.845 561.091L559.021 515.299L597.197 561.091L559.021 606.883L520.845 561.091ZM610.309 576.816L648.485 622.608L610.309 668.4L572.133 622.608L610.309 576.816ZM623.402 561.091L661.578 515.299L699.754 561.091L661.578 606.883L623.402 561.091ZM712.866 576.816L751.042 622.608L712.866 668.4L674.69 622.608L712.866 576.816ZM725.959 561.091L764.135 515.299L802.311 561.091L764.135 606.883L725.959 561.091ZM815.423 576.816L853.599 622.608L815.423 668.4L777.247 622.608L815.423 576.816ZM777.247 499.596L815.423 453.804L853.599 499.596L815.423 545.388L777.247 499.596ZM777.247 376.584L815.423 330.792L853.599 376.584L815.423 422.376L777.247 376.584ZM764.154 360.88L725.978 315.088L764.154 269.296L802.33 315.088L764.154 360.88ZM751.061 376.584L712.885 422.376L674.709 376.584L712.885 330.792L751.061 376.584ZM661.597 360.88L623.421 315.088L661.597 269.296L699.773 315.088L661.597 360.88ZM648.504 376.584L610.328 422.376L572.152 376.584L610.328 330.792L648.504 376.584ZM559.04 360.88L520.864 315.088L559.04 269.296L597.216 315.088L559.04 360.88ZM545.947 376.584L507.771 422.376L469.595 376.584L507.771 330.792L545.947 376.584ZM456.483 360.88L418.307 315.088L456.483 269.296L494.659 315.088L456.483 360.88ZM443.39 376.584L405.214 422.376L367.038 376.584L405.214 330.792L443.39 376.584ZM353.926 360.88L315.75 315.088L353.926 269.296L392.101 315.088L353.926 360.88ZM340.832 376.584L302.657 422.376L264.481 376.584L302.657 330.792L340.832 376.584ZM251.368 360.88L213.193 315.088L251.368 269.296L289.544 315.088L251.368 360.88ZM238.275 376.584L200.099 422.376L161.924 376.584L200.099 330.792L238.275 376.584ZM148.811 360.88L110.635 315.088L148.811 269.296L186.987 315.088L148.811 360.88ZM135.718 376.584L97.5423 422.376L59.3664 376.584L97.5423 330.792L135.718 376.584ZM46.2542 360.88L8.07834 315.088L46.2542 269.296L84.43 315.088L46.2542 360.88ZM33.161 376.584L-5.01488 422.376L-43.1907 376.584L-5.01488 330.792L33.161 376.584ZM-56.303 360.88L-94.4788 315.088L-56.303 269.296L-18.1271 315.088L-56.303 360.88ZM-69.3961 376.584L-107.572 422.376L-145.748 376.584L-107.572 330.792L-69.3961 376.584ZM-158.86 360.88L-197.036 315.088L-158.86 269.296L-120.684 315.088L-158.86 360.88ZM-171.953 376.584L-210.129 422.376L-248.305 376.584L-210.129 330.792L-171.953 376.584ZM-261.417 360.88L-299.593 315.088L-261.417 269.296L-223.241 315.088L-261.417 360.88ZM-274.51 376.584L-312.686 422.376L-350.862 376.584L-312.686 330.792L-274.51 376.584ZM-274.51 499.596L-312.686 545.388L-350.862 499.596L-312.686 453.804L-274.51 499.596ZM-274.51 622.608L-312.686 668.4L-350.862 622.608L-312.686 576.816L-274.51 622.608ZM-274.51 745.62L-312.686 791.412L-350.862 745.62L-312.686 699.828L-274.51 745.62ZM-299.593 684.124L-261.417 638.332L-223.241 684.124L-261.417 729.916L-299.593 684.124ZM-210.129 699.828L-171.953 745.62L-210.129 791.412L-248.305 745.62L-210.129 699.828ZM-197.036 684.124L-158.86 638.332L-120.684 684.124L-158.86 729.916L-197.036 684.124ZM-107.572 699.849L-69.3961 745.641L-107.572 791.433L-145.748 745.641L-107.572 699.849ZM-94.4788 684.124L-56.303 638.332L-18.1271 684.124L-56.303 729.916L-94.4788 684.124ZM-5.01488 699.828L33.161 745.62L-5.01488 791.412L-43.1907 745.62L-5.01488 699.828ZM8.07834 684.124L46.2542 638.332L84.43 684.124L46.2542 729.916L8.07834 684.124ZM97.5423 699.828L135.718 745.62L97.5423 791.412L59.3664 745.62L97.5423 699.828ZM110.635 684.124L148.811 638.332L186.987 684.124L148.811 729.916L110.635 684.124ZM200.099 699.828L238.275 745.62L200.099 791.412L161.924 745.62L200.099 699.828ZM213.193 684.124L251.368 638.332L289.544 684.124L251.368 729.916L213.193 684.124ZM302.657 699.828L340.832 745.62L302.657 791.412L264.481 745.62L302.657 699.828ZM315.75 684.124L353.926 638.332L392.101 684.124L353.926 729.916L315.75 684.124ZM405.214 699.828L443.39 745.62L405.214 791.412L367.038 745.62L405.214 699.828ZM418.307 684.124L456.483 638.332L494.659 684.124L456.483 729.916L418.307 684.124ZM507.771 699.828L545.947 745.62L507.771 791.412L469.595 745.62L507.771 699.828ZM520.864 684.124L559.04 638.332L597.216 684.124L559.04 729.916L520.864 684.124ZM610.328 699.849L648.504 745.641L610.328 791.433L572.152 745.641L610.328 699.849ZM623.421 684.124L661.597 638.332L699.773 684.124L661.597 729.916L623.421 684.124ZM712.885 699.828L751.061 745.62L712.885 791.412L674.709 745.62L712.885 699.828ZM725.978 684.124L764.154 638.332L802.33 684.124L764.154 729.916L725.978 684.124ZM815.442 699.828L853.618 745.62L815.442 791.412L777.266 745.62L815.442 699.828ZM828.535 684.124L866.711 638.332L904.887 684.124L866.711 729.916L828.535 684.124ZM828.535 561.112L866.711 515.32L904.887 561.112L866.711 606.904L828.535 561.112ZM828.535 438.1L866.711 392.308L904.887 438.1L866.711 483.892L828.535 438.1ZM828.535 315.088L866.711 269.296L904.887 315.088L866.711 360.88L828.535 315.088ZM828.535 192.076L866.711 146.284L904.887 192.076L866.711 237.868L828.535 192.076ZM853.618 253.593L815.442 299.385L777.266 253.593L815.442 207.801L853.618 253.593ZM764.154 237.89L725.978 192.098L764.154 146.306L802.33 192.098L764.154 237.89ZM751.061 253.593L712.885 299.385L674.709 253.593L712.885 207.801L751.061 253.593ZM661.597 237.89L623.421 192.098L661.597 146.306L699.773 192.098L661.597 237.89ZM648.504 253.593L610.328 299.385L572.152 253.593L610.328 207.801L648.504 253.593ZM559.04 237.89L520.864 192.098L559.04 146.306L597.216 192.098L559.04 237.89ZM545.947 253.593L507.771 299.385L469.595 253.593L507.771 207.801L545.947 253.593ZM456.483 237.89L418.307 192.098L456.483 146.306L494.659 192.098L456.483 237.89ZM443.39 253.593L405.214 299.385L367.038 253.593L405.214 207.801L443.39 253.593ZM353.926 237.89L315.75 192.098L353.926 146.306L392.101 192.098L353.926 237.89ZM340.832 253.593L302.657 299.385L264.481 253.593L302.657 207.801L340.832 253.593ZM251.368 237.89L213.193 192.098L251.368 146.306L289.544 192.098L251.368 237.89ZM238.275 253.593L200.099 299.385L161.924 253.593L200.099 207.801L238.275 253.593ZM148.811 237.868L110.635 192.076L148.811 146.284L186.987 192.076L148.811 237.868ZM135.718 253.572L97.5423 299.364L59.3664 253.572L97.5423 207.78L135.718 253.572ZM46.2542 237.868L8.07834 192.076L46.2542 146.284L84.43 192.076L46.2542 237.868ZM33.161 253.572L-5.01488 299.364L-43.1907 253.572L-5.01488 207.78L33.161 253.572ZM-56.303 237.868L-94.4788 192.076L-56.303 146.284L-18.1271 192.076L-56.303 237.868ZM-69.3961 253.572L-107.572 299.364L-145.748 253.572L-107.572 207.78L-69.3961 253.572ZM-158.86 237.868L-197.036 192.076L-158.86 146.284L-120.684 192.076L-158.86 237.868ZM-171.953 253.572L-210.129 299.364L-248.305 253.572L-210.129 207.78L-171.953 253.572ZM-261.417 237.868L-299.593 192.076L-261.417 146.284L-223.241 192.076L-261.417 237.868ZM-274.51 253.572L-312.686 299.364L-350.862 253.572L-312.686 207.78L-274.51 253.572ZM-363.974 237.868L-402.15 192.076L-363.974 146.284L-325.799 192.076L-363.974 237.868ZM-325.799 315.088L-363.974 360.88L-402.15 315.088L-363.974 269.296L-325.799 315.088ZM-325.799 438.1L-363.974 483.892L-402.15 438.1L-363.974 392.308L-325.799 438.1ZM-325.799 561.112L-363.974 606.904L-402.15 561.112L-363.974 515.32L-325.799 561.112ZM-325.799 684.124L-363.974 729.916L-402.15 684.124L-363.974 638.332L-325.799 684.124ZM-325.799 807.136L-363.974 852.928L-402.15 807.136L-363.974 761.344L-325.799 807.136ZM-312.705 822.861L-274.529 868.653L-312.705 914.445L-350.881 868.653L-312.705 822.861ZM-299.612 807.136L-261.436 761.344L-223.26 807.136L-261.436 852.928L-299.612 807.136ZM-210.148 822.861L-171.972 868.653L-210.148 914.445L-248.324 868.653L-210.148 822.861ZM-197.055 807.158L-158.879 761.366L-120.703 807.158L-158.879 852.95L-197.055 807.158ZM-107.591 822.861L-69.4152 868.653L-107.591 914.445L-145.767 868.653L-107.591 822.861ZM-94.4978 807.136L-56.322 761.344L-18.1461 807.136L-56.322 852.928L-94.4978 807.136ZM-5.0339 822.861L33.1419 868.653L-5.0339 914.445L-43.2097 868.653L-5.0339 822.861ZM8.05932 807.158L46.2352 761.366L84.411 807.158L46.2352 852.95L8.05932 807.158ZM97.5233 822.861L135.699 868.653L97.5233 914.445L59.3474 868.653L97.5233 822.861ZM110.616 807.158L148.792 761.366L186.968 807.158L148.792 852.95L110.616 807.158ZM200.08 822.861L238.256 868.653L200.08 914.445L161.905 868.653L200.08 822.861ZM213.174 807.136L251.349 761.344L289.525 807.136L251.349 852.928L213.174 807.136ZM302.638 822.861L340.813 868.653L302.638 914.445L264.462 868.653L302.638 822.861ZM315.731 807.136L353.907 761.344L392.082 807.136L353.907 852.928L315.731 807.136ZM405.195 822.861L443.37 868.653L405.195 914.445L367.019 868.653L405.195 822.861ZM418.288 807.158L456.464 761.366L494.64 807.158L456.464 852.95L418.288 807.158ZM507.752 822.861L545.928 868.653L507.752 914.445L469.576 868.653L507.752 822.861ZM520.845 807.158L559.021 761.366L597.197 807.158L559.021 852.95L520.845 807.158ZM610.309 822.861L648.485 868.653L610.309 914.445L572.133 868.653L610.309 822.861ZM623.402 807.136L661.578 761.344L699.754 807.136L661.578 852.928L623.402 807.136ZM712.866 822.861L751.042 868.653L712.866 914.445L674.69 868.653L712.866 822.861ZM725.959 807.158L764.135 761.366L802.311 807.158L764.135 852.95L725.959 807.158ZM815.423 822.861L853.599 868.653L815.423 914.445L777.247 868.653L815.423 822.861ZM828.516 807.136L866.692 761.344L904.868 807.136L866.692 852.928L828.516 807.136ZM956.156 745.641L917.98 791.433L879.804 745.641L917.98 699.849L956.156 745.641ZM956.156 622.629L917.98 668.421L879.804 622.629L917.98 576.837L956.156 622.629ZM956.156 499.617L917.98 545.409L879.804 499.617L917.98 453.825L956.156 499.617ZM956.156 376.605L917.98 422.397L879.804 376.605L917.98 330.813L956.156 376.605ZM956.156 253.593L917.98 299.385L879.804 253.593L917.98 207.801L956.156 253.593ZM956.156 130.581L917.98 176.373L879.804 130.581L917.98 84.7892L956.156 130.581ZM866.692 23.2724L904.868 69.0644L866.692 114.856L828.516 69.0644L866.692 23.2724ZM815.404 84.7892L853.58 130.581L815.404 176.373L777.228 130.581L815.404 84.7892ZM764.116 23.294L802.292 69.086L764.116 114.878L725.94 69.086L764.116 23.294ZM751.023 130.603L712.847 176.395L674.671 130.603L712.847 84.8108L751.023 130.603ZM661.559 23.294L699.735 69.086L661.559 114.878L623.383 69.086L661.559 23.294ZM648.466 130.603L610.29 176.395L572.114 130.603L610.29 84.8108L648.466 130.603ZM559.002 23.294L597.178 69.086L559.002 114.878L520.826 69.086L559.002 23.294ZM545.909 130.603L507.733 176.395L469.557 130.603L507.733 84.8108L545.909 130.603ZM456.445 23.294L494.62 69.086L456.445 114.878L418.269 69.086L456.445 23.294ZM443.351 130.581L405.176 176.373L367 130.581L405.176 84.7892L443.351 130.581ZM353.888 23.2724L392.063 69.0644L353.888 114.856L315.712 69.0644L353.888 23.2724ZM340.794 130.581L302.618 176.373L264.443 130.581L302.618 84.7892L340.794 130.581ZM251.33 23.2724L289.506 69.0644L251.33 114.856L213.155 69.0644L251.33 23.2724ZM238.237 130.581L200.061 176.373L161.885 130.581L200.061 84.7892L238.237 130.581ZM148.773 23.2724L186.949 69.0644L148.773 114.856L110.597 69.0644L148.773 23.2724ZM135.68 130.581L97.5042 176.373L59.3284 130.581L97.5042 84.7892L135.68 130.581ZM46.2161 23.2724L84.3919 69.0644L46.2161 114.856L8.04027 69.0644L46.2161 23.2724ZM33.1229 130.56L-5.05292 176.352L-43.2288 130.56L-5.05292 84.7676L33.1229 130.56ZM-56.341 23.2508L-18.1652 69.0428L-56.341 114.835L-94.5169 69.0428L-56.341 23.2508ZM-69.4342 130.56L-107.61 176.352L-145.786 130.56L-107.61 84.7676L-69.4342 130.56ZM-158.898 23.2508L-120.722 69.0428L-158.898 114.835L-197.074 69.0428L-158.898 23.2508ZM-171.991 130.56L-210.167 176.352L-248.343 130.56L-210.167 84.7676L-171.991 130.56ZM-261.455 23.2508L-223.279 69.0428L-261.455 114.835L-299.631 69.0428L-261.455 23.2508ZM-274.548 130.56L-312.724 176.352L-350.9 130.56L-312.724 84.7676L-274.548 130.56ZM-364.012 23.2508L-325.837 69.0428L-364.012 114.835L-402.188 69.0428L-364.012 23.2508ZM-453.476 130.56L-415.3 84.7676L-377.125 130.56L-415.3 176.352L-453.476 130.56ZM-453.476 253.572L-415.3 207.78L-377.125 253.572L-415.3 299.364L-453.476 253.572ZM-453.476 376.584L-415.3 330.792L-377.125 376.584L-415.3 422.376L-453.476 376.584ZM-453.476 499.596L-415.3 453.804L-377.125 499.596L-415.3 545.388L-453.476 499.596ZM-453.476 622.608L-415.3 576.816L-377.125 622.608L-415.3 668.4L-453.476 622.608ZM-453.476 745.62L-415.3 699.828L-377.125 745.62L-415.3 791.412L-453.476 745.62ZM-453.476 868.632L-415.3 822.84L-377.125 868.632L-415.3 914.424L-453.476 868.632ZM-415.3 1037.44L-453.476 991.644L-415.3 945.852L-377.125 991.644L-415.3 1037.44ZM-402.207 930.127L-364.031 884.335L-325.856 930.127L-364.031 975.919L-402.207 930.127ZM-312.743 1037.44L-350.919 991.644L-312.743 945.852L-274.568 991.644L-312.743 1037.44ZM-299.65 930.127L-261.474 884.335L-223.298 930.127L-261.474 975.919L-299.65 930.127ZM-210.186 1037.44L-248.362 991.644L-210.186 945.852L-172.01 991.644L-210.186 1037.44ZM-197.093 930.127L-158.917 884.335L-120.741 930.127L-158.917 975.919L-197.093 930.127ZM-107.629 1037.44L-145.805 991.644L-107.629 945.852L-69.4533 991.644L-107.629 1037.44ZM-94.5359 930.127L-56.36 884.335L-18.1842 930.127L-56.36 975.919L-94.5359 930.127ZM-5.07197 1037.44L-43.2478 991.644L-5.07197 945.852L33.1039 991.644L-5.07197 1037.44ZM8.02125 930.127L46.1971 884.335L84.373 930.127L46.1971 975.919L8.02125 930.127ZM97.4852 1037.44L59.3093 991.644L97.4852 945.852L135.661 991.644L97.4852 1037.44ZM110.578 930.127L148.754 884.335L186.93 930.127L148.754 975.919L110.578 930.127ZM200.042 1037.44L161.866 991.644L200.042 945.852L238.218 991.644L200.042 1037.44ZM213.136 930.127L251.311 884.335L289.487 930.127L251.311 975.919L213.136 930.127ZM302.599 1037.44L264.424 991.644L302.599 945.852L340.775 991.644L302.599 1037.44ZM315.693 930.127L353.868 884.335L392.044 930.127L353.868 975.919L315.693 930.127ZM405.157 1037.44L366.981 991.644L405.157 945.852L443.332 991.644L405.157 1037.44ZM418.25 930.127L456.426 884.335L494.601 930.127L456.426 975.919L418.25 930.127ZM507.714 1037.44L469.538 991.644L507.714 945.852L545.89 991.644L507.714 1037.44ZM520.807 930.127L558.983 884.335L597.159 930.127L558.983 975.919L520.807 930.127ZM610.271 1037.44L572.095 991.644L610.271 945.852L648.447 991.644L610.271 1037.44ZM623.364 930.127L661.54 884.335L699.716 930.127L661.54 975.919L623.364 930.127ZM712.828 1037.44L674.652 991.644L712.828 945.852L751.004 991.644L712.828 1037.44ZM725.921 930.127L764.097 884.335L802.273 930.127L764.097 975.919L725.921 930.127ZM815.385 1037.44L777.209 991.644L815.385 945.852L853.561 991.644L815.385 1037.44ZM828.478 930.127L866.654 884.335L904.83 930.127L866.654 975.919L828.478 930.127ZM879.766 991.622L917.942 945.83L956.118 991.622L917.942 1037.41L879.766 991.622Z" fill="#C48D35"/>
<path d="M931.093 1032.25L965.005 991.579V949.891L931.093 909.218L965.005 868.545V826.857L931.093 786.184L965.005 745.512V703.824L931.093 663.151L965.005 622.478V580.79L931.093 540.117L965.005 499.444V457.756L931.093 417.084L965.005 376.411V334.744L931.093 294.072L965.005 253.399V211.711L931.093 171.038L965.005 130.365V88.6772L931.093 48.0044L965.005 7.33161V0.203613H944.871L917.999 32.4524L891.128 0.203613H842.333L815.461 32.4524L788.59 0.203613H739.795L712.904 32.4524L686.014 0.203613H637.219L610.328 32.4524L583.437 0.203613H534.642L507.752 32.4524L480.861 0.203613H432.066L405.176 32.4524L378.285 0.203613H329.49L302.599 32.4524L275.709 0.203613H226.914L200.042 32.4524L173.152 0.203613H124.357L97.4662 32.4524L70.5756 0.203613H21.7805L-5.11001 32.4524L-31.9816 0.203613H-80.7766L-107.667 32.4524L-134.539 0.203613H-183.334L-210.224 32.4524L-237.058 0.203613H-285.853L-312.724 32.4524L-339.615 0.203613H-388.41L-415.3 32.4524L-442.172 0.203613H-462.307V7.48281L-428.394 48.1556L-462.307 88.8284V130.516L-428.394 171.189L-462.307 211.84V253.528L-428.394 294.201L-462.307 334.852V376.519L-428.394 417.192L-462.307 457.864V499.552L-428.394 540.225L-462.307 580.876V622.543L-428.394 663.216L-462.307 703.888V745.576L-428.394 786.249L-462.307 826.9V868.588L-428.394 909.261L-462.307 949.912V991.579L-428.394 1032.25L-462.307 1072.92V1080.2H-442.172L-415.3 1047.98L-388.429 1080.2H-339.615L-312.743 1047.98L-285.872 1080.2H-237.058L-210.186 1047.98L-183.315 1080.2H-134.501L-107.629 1047.98L-80.7576 1080.2H-31.9435L-5.07197 1047.98L21.7996 1080.2H70.6136L97.4852 1047.98L124.357 1080.2H173.171L200.042 1047.98L226.914 1080.2H275.728L302.599 1047.98L329.471 1080.2H378.285L405.157 1047.98L432.028 1080.2H480.842L507.714 1047.98L534.585 1080.2H583.399L610.271 1047.98L637.142 1080.2H685.956L712.828 1047.98L739.699 1080.2H788.514L815.385 1047.98L842.257 1080.2H891.071L917.942 1047.98L944.814 1080.2H964.948V1072.92L931.036 1032.25H931.093ZM956.175 847.744L917.999 893.536L879.823 847.744L917.999 801.952L956.175 847.744ZM764.154 462.984L725.978 417.192L764.154 371.4L802.33 417.192L764.154 462.984ZM764.154 494.412L802.33 540.204L764.154 585.996L725.978 540.204L764.154 494.412ZM751.061 478.708L712.885 524.5L674.709 478.708L712.885 432.916L751.061 478.708ZM699.773 540.225L661.597 586.017L623.421 540.225L661.597 494.433L699.773 540.225ZM661.597 463.005L623.421 417.213L661.597 371.421L699.773 417.213L661.597 463.005ZM648.504 478.708L610.328 524.5L572.152 478.708L610.328 432.916L648.504 478.708ZM597.216 540.225L559.04 586.017L520.864 540.225L559.04 494.433L597.216 540.225ZM559.04 463.005L520.864 417.213L559.04 371.421L597.216 417.213L559.04 463.005ZM545.947 478.708L507.771 524.5L469.595 478.708L507.771 432.916L545.947 478.708ZM494.659 540.225L456.483 586.017L418.307 540.225L456.483 494.433L494.659 540.225ZM456.483 463.005L418.307 417.213L456.483 371.421L494.659 417.213L456.483 463.005ZM443.39 478.708L405.214 524.5L367.038 478.708L405.214 432.916L443.39 478.708ZM392.101 540.204L353.926 585.996L315.75 540.204L353.926 494.412L392.101 540.204ZM353.926 462.984L315.75 417.192L353.926 371.4L392.101 417.192L353.926 462.984ZM340.832 478.687L302.657 524.479L264.481 478.687L302.657 432.895L340.832 478.687ZM289.544 540.204L251.368 585.996L213.193 540.204L251.368 494.412L289.544 540.204ZM251.368 462.984L213.193 417.192L251.368 371.4L289.544 417.192L251.368 462.984ZM238.275 478.687L200.099 524.479L161.924 478.687L200.099 432.895L238.275 478.687ZM186.987 540.204L148.811 585.996L110.635 540.204L148.811 494.412L186.987 540.204ZM148.811 462.984L110.635 417.192L148.811 371.4L186.987 417.192L148.811 462.984ZM135.718 478.687L97.5423 524.479L59.3664 478.687L97.5423 432.895L135.718 478.687ZM84.43 540.182L46.2542 585.974L8.07834 540.182L46.2542 494.39L84.43 540.182ZM46.2542 462.962L8.07834 417.17L46.2542 371.378L84.43 417.17L46.2542 462.962ZM33.161 478.665L-5.01488 524.457L-43.1907 478.665L-5.01488 432.873L33.161 478.665ZM-18.1271 540.182L-56.303 585.974L-94.4788 540.182L-56.303 494.39L-18.1271 540.182ZM-56.303 462.962L-94.4788 417.17L-56.303 371.378L-18.1271 417.17L-56.303 462.962ZM-69.3961 478.665L-107.572 524.457L-145.748 478.665L-107.572 432.873L-69.3961 478.665ZM-120.684 540.182L-158.86 585.974L-197.036 540.182L-158.86 494.39L-120.684 540.182ZM-158.86 462.962L-197.036 417.17L-158.86 371.378L-120.684 417.17L-158.86 462.962ZM-171.953 478.665L-210.129 524.457L-248.305 478.665L-210.129 432.873L-171.953 478.665ZM-261.417 462.962L-299.593 417.17L-261.417 371.378L-223.241 417.17L-261.417 462.962ZM-223.241 540.182L-261.417 585.974L-299.593 540.182L-261.417 494.39L-223.241 540.182ZM-223.241 663.194L-261.417 708.986L-299.593 663.194L-261.417 617.402L-223.241 663.194ZM-248.324 601.677L-210.148 555.885L-171.972 601.677L-210.148 647.469L-248.324 601.677ZM-158.86 617.402L-120.684 663.194L-158.86 708.986L-197.036 663.194L-158.86 617.402ZM-145.767 601.699L-107.591 555.907L-69.4152 601.699L-107.591 647.491L-145.767 601.699ZM-56.303 617.402L-18.1271 663.194L-56.303 708.986L-94.4788 663.194L-56.303 617.402ZM-43.2097 601.699L-5.0339 555.907L33.1419 601.699L-5.0339 647.491L-43.2097 601.699ZM46.2542 617.402L84.43 663.194L46.2542 708.986L8.07834 663.194L46.2542 617.402ZM59.3474 601.699L97.5233 555.907L135.699 601.699L97.5233 647.491L59.3474 601.699ZM148.811 617.402L186.987 663.194L148.811 708.986L110.635 663.194L148.811 617.402ZM161.905 601.699L200.08 555.907L238.256 601.699L200.08 647.491L161.905 601.699ZM251.368 617.424L289.544 663.216L251.368 709.008L213.193 663.216L251.368 617.424ZM264.462 601.72L302.638 555.928L340.813 601.72L302.638 647.512L264.462 601.72ZM353.926 617.424L392.101 663.216L353.926 709.008L315.75 663.216L353.926 617.424ZM367.019 601.72L405.195 555.928L443.37 601.72L405.195 647.512L367.019 601.72ZM456.483 617.424L494.659 663.216L456.483 709.008L418.307 663.216L456.483 617.424ZM469.576 601.72L507.752 555.928L545.928 601.72L507.752 647.512L469.576 601.72ZM559.04 617.445L597.216 663.237L559.04 709.029L520.864 663.237L559.04 617.445ZM572.133 601.742L610.309 555.95L648.485 601.742L610.309 647.534L572.133 601.742ZM661.597 617.445L699.773 663.237L661.597 709.029L623.421 663.237L661.597 617.445ZM674.69 601.742L712.866 555.95L751.042 601.742L712.866 647.534L674.69 601.742ZM764.154 617.445L802.33 663.237L764.154 709.029L725.978 663.237L764.154 617.445ZM777.247 601.742L815.423 555.95L853.599 601.742L815.423 647.534L777.247 601.742ZM777.247 478.73L815.423 432.938L853.599 478.73L815.423 524.522L777.247 478.73ZM777.247 355.718L815.423 309.926L853.599 355.718L815.423 401.51L777.247 355.718ZM764.154 340.015L725.978 294.223L764.154 248.431L802.33 294.223L764.154 340.015ZM751.061 355.718L712.885 401.51L674.709 355.718L712.885 309.926L751.061 355.718ZM661.597 340.015L623.421 294.223L661.597 248.431L699.773 294.223L661.597 340.015ZM648.504 355.718L610.328 401.51L572.152 355.718L610.328 309.926L648.504 355.718ZM559.04 340.015L520.864 294.223L559.04 248.431L597.216 294.223L559.04 340.015ZM545.947 355.718L507.771 401.51L469.595 355.718L507.771 309.926L545.947 355.718ZM456.483 340.015L418.307 294.223L456.483 248.431L494.659 294.223L456.483 340.015ZM443.39 355.718L405.214 401.51L367.038 355.718L405.214 309.926L443.39 355.718ZM353.926 340.015L315.75 294.223L353.926 248.431L392.101 294.223L353.926 340.015ZM340.832 355.718L302.657 401.51L264.481 355.718L302.657 309.926L340.832 355.718ZM251.368 340.015L213.193 294.223L251.368 248.431L289.544 294.223L251.368 340.015ZM238.275 355.718L200.099 401.51L161.924 355.718L200.099 309.926L238.275 355.718ZM148.811 340.015L110.635 294.223L148.811 248.431L186.987 294.223L148.811 340.015ZM135.718 355.718L97.5423 401.51L59.3664 355.718L97.5423 309.926L135.718 355.718ZM46.2542 340.015L8.07834 294.223L46.2542 248.431L84.43 294.223L46.2542 340.015ZM33.161 355.718L-5.01488 401.51L-43.1907 355.718L-5.01488 309.926L33.161 355.718ZM-56.303 340.015L-94.4788 294.223L-56.303 248.431L-18.1271 294.223L-56.303 340.015ZM-69.3961 355.718L-107.572 401.51L-145.748 355.718L-107.572 309.926L-69.3961 355.718ZM-158.86 340.015L-197.036 294.223L-158.86 248.431L-120.684 294.223L-158.86 340.015ZM-171.953 355.718L-210.129 401.51L-248.305 355.718L-210.129 309.926L-171.953 355.718ZM-261.417 340.015L-299.593 294.223L-261.417 248.431L-223.241 294.223L-261.417 340.015ZM-274.51 355.718L-312.686 401.51L-350.862 355.718L-312.686 309.926L-274.51 355.718ZM-274.51 478.73L-312.686 524.522L-350.862 478.73L-312.686 432.938L-274.51 478.73ZM-274.51 601.742L-312.686 647.534L-350.862 601.742L-312.686 555.95L-274.51 601.742ZM-274.51 724.754L-312.686 770.546L-350.862 724.754L-312.686 678.962L-274.51 724.754ZM-261.417 740.457L-223.241 786.249L-261.417 832.041L-299.593 786.249L-261.417 740.457ZM-248.324 724.754L-210.148 678.962L-171.972 724.754L-210.148 770.546L-248.324 724.754ZM-158.86 740.457L-120.684 786.249L-158.86 832.041L-197.036 786.249L-158.86 740.457ZM-145.767 724.732L-107.591 678.94L-69.4152 724.732L-107.591 770.524L-145.767 724.732ZM-56.303 740.457L-18.1271 786.249L-56.303 832.041L-94.4788 786.249L-56.303 740.457ZM-43.2097 724.754L-5.0339 678.962L33.1419 724.754L-5.0339 770.546L-43.2097 724.754ZM46.2542 740.457L84.43 786.249L46.2542 832.041L8.07834 786.249L46.2542 740.457ZM59.3474 724.754L97.5233 678.962L135.699 724.754L97.5233 770.546L59.3474 724.754ZM148.811 740.457L186.987 786.249L148.811 832.041L110.635 786.249L148.811 740.457ZM161.905 724.754L200.08 678.962L238.256 724.754L200.08 770.546L161.905 724.754ZM251.368 740.457L289.544 786.249L251.368 832.041L213.193 786.249L251.368 740.457ZM264.462 724.754L302.638 678.962L340.813 724.754L302.638 770.546L264.462 724.754ZM353.926 740.457L392.101 786.249L353.926 832.041L315.75 786.249L353.926 740.457ZM367.019 724.754L405.195 678.962L443.37 724.754L405.195 770.546L367.019 724.754ZM456.483 740.457L494.659 786.249L456.483 832.041L418.307 786.249L456.483 740.457ZM469.576 724.754L507.752 678.962L545.928 724.754L507.752 770.546L469.576 724.754ZM559.04 740.457L597.216 786.249L559.04 832.041L520.864 786.249L559.04 740.457ZM572.133 724.754L610.309 678.962L648.485 724.754L610.309 770.546L572.133 724.754ZM661.597 740.457L699.773 786.249L661.597 832.041L623.421 786.249L661.597 740.457ZM674.69 724.754L712.866 678.962L751.042 724.754L712.866 770.546L674.69 724.754ZM764.154 740.457L802.33 786.249L764.154 832.041L725.978 786.249L764.154 740.457ZM777.247 724.754L815.423 678.962L853.599 724.754L815.423 770.546L777.247 724.754ZM866.711 740.457L904.887 786.249L866.711 832.041L828.535 786.249L866.711 740.457ZM828.535 663.237L866.711 617.445L904.887 663.237L866.711 709.029L828.535 663.237ZM828.535 540.225L866.711 494.433L904.887 540.225L866.711 586.017L828.535 540.225ZM828.535 417.213L866.711 371.421L904.887 417.213L866.711 463.005L828.535 417.213ZM828.535 294.201L866.711 248.409L904.887 294.201L866.711 339.993L828.535 294.201ZM828.535 171.189L866.711 125.397L904.887 171.189L866.711 216.981L828.535 171.189ZM853.618 232.706L815.442 278.498L777.266 232.706L815.442 186.914L853.618 232.706ZM764.154 217.003L725.978 171.211L764.154 125.419L802.33 171.211L764.154 217.003ZM751.061 232.706L712.885 278.498L674.709 232.706L712.885 186.914L751.061 232.706ZM661.597 217.003L623.421 171.211L661.597 125.419L699.773 171.211L661.597 217.003ZM648.504 232.706L610.328 278.498L572.152 232.706L610.328 186.914L648.504 232.706ZM559.04 217.003L520.864 171.211L559.04 125.419L597.216 171.211L559.04 217.003ZM545.947 232.706L507.771 278.498L469.595 232.706L507.771 186.914L545.947 232.706ZM456.483 217.003L418.307 171.211L456.483 125.419L494.659 171.211L456.483 217.003ZM443.39 232.706L405.214 278.498L367.038 232.706L405.214 186.914L443.39 232.706ZM353.926 217.003L315.75 171.211L353.926 125.419L392.101 171.211L353.926 217.003ZM340.832 232.706L302.657 278.498L264.481 232.706L302.657 186.914L340.832 232.706ZM251.368 217.003L213.193 171.211L251.368 125.419L289.544 171.211L251.368 217.003ZM238.275 232.706L200.099 278.498L161.924 232.706L200.099 186.914L238.275 232.706ZM148.811 216.981L110.635 171.189L148.811 125.397L186.987 171.189L148.811 216.981ZM135.718 232.684L97.5423 278.476L59.3664 232.684L97.5423 186.892L135.718 232.684ZM46.2542 216.981L8.07834 171.189L46.2542 125.397L84.43 171.189L46.2542 216.981ZM33.161 232.684L-5.01488 278.476L-43.1907 232.684L-5.01488 186.892L33.161 232.684ZM-56.303 216.981L-94.4788 171.189L-56.303 125.397L-18.1271 171.189L-56.303 216.981ZM-69.3961 232.684L-107.572 278.476L-145.748 232.684L-107.572 186.892L-69.3961 232.684ZM-158.86 216.981L-197.036 171.189L-158.86 125.397L-120.684 171.189L-158.86 216.981ZM-171.953 232.684L-210.129 278.476L-248.305 232.684L-210.129 186.892L-171.953 232.684ZM-261.417 216.981L-299.593 171.189L-261.417 125.397L-223.241 171.189L-261.417 216.981ZM-274.51 232.684L-312.686 278.476L-350.862 232.684L-312.686 186.892L-274.51 232.684ZM-363.974 216.981L-402.15 171.189L-363.974 125.397L-325.799 171.189L-363.974 216.981ZM-325.799 294.201L-363.974 339.993L-402.15 294.201L-363.974 248.409L-325.799 294.201ZM-325.799 417.213L-363.974 463.005L-402.15 417.213L-363.974 371.421L-325.799 417.213ZM-325.799 540.225L-363.974 586.017L-402.15 540.225L-363.974 494.433L-325.799 540.225ZM-325.799 663.237L-363.974 709.029L-402.15 663.237L-363.974 617.445L-325.799 663.237ZM-325.799 786.249L-363.974 832.041L-402.15 786.249L-363.974 740.457L-325.799 786.249ZM-325.799 909.261L-363.974 955.053L-402.15 909.261L-363.974 863.469L-325.799 909.261ZM-350.881 847.766L-312.705 801.974L-274.529 847.766L-312.705 893.558L-350.881 847.766ZM-261.417 863.469L-223.241 909.261L-261.417 955.053L-299.593 909.261L-261.417 863.469ZM-248.324 847.766L-210.148 801.974L-171.972 847.766L-210.148 893.558L-248.324 847.766ZM-158.86 863.469L-120.684 909.261L-158.86 955.053L-197.036 909.261L-158.86 863.469ZM-145.767 847.766L-107.591 801.974L-69.4152 847.766L-107.591 893.558L-145.767 847.766ZM-56.303 863.469L-18.1271 909.261L-56.303 955.053L-94.4788 909.261L-56.303 863.469ZM-43.2097 847.766L-5.0339 801.974L33.1419 847.766L-5.0339 893.558L-43.2097 847.766ZM46.2542 863.469L84.43 909.261L46.2542 955.053L8.07834 909.261L46.2542 863.469ZM59.3474 847.766L97.5233 801.974L135.699 847.766L97.5233 893.558L59.3474 847.766ZM148.811 863.469L186.987 909.261L148.811 955.053L110.635 909.261L148.811 863.469ZM161.905 847.766L200.08 801.974L238.256 847.766L200.08 893.558L161.905 847.766ZM251.368 863.469L289.544 909.261L251.368 955.053L213.193 909.261L251.368 863.469ZM264.462 847.766L302.638 801.974L340.813 847.766L302.638 893.558L264.462 847.766ZM353.926 863.469L392.101 909.261L353.926 955.053L315.75 909.261L353.926 863.469ZM367.019 847.766L405.195 801.974L443.37 847.766L405.195 893.558L367.019 847.766ZM456.483 863.469L494.659 909.261L456.483 955.053L418.307 909.261L456.483 863.469ZM469.576 847.766L507.752 801.974L545.928 847.766L507.752 893.558L469.576 847.766ZM559.04 863.469L597.216 909.261L559.04 955.053L520.864 909.261L559.04 863.469ZM572.133 847.766L610.309 801.974L648.485 847.766L610.309 893.558L572.133 847.766ZM661.597 863.469L699.773 909.261L661.597 955.053L623.421 909.261L661.597 863.469ZM674.69 847.766L712.866 801.974L751.042 847.766L712.866 893.558L674.69 847.766ZM764.154 863.469L802.33 909.261L764.154 955.053L725.978 909.261L764.154 863.469ZM777.247 847.766L815.423 801.974L853.599 847.766L815.423 893.558L777.247 847.766ZM866.711 863.469L904.887 909.261L866.711 955.053L828.535 909.261L866.711 863.469ZM956.175 724.732L917.999 770.524L879.823 724.732L917.999 678.94L956.175 724.732ZM956.175 601.72L917.999 647.512L879.823 601.72L917.999 555.928L956.175 601.72ZM956.175 478.708L917.999 524.5L879.823 478.708L917.999 432.916L956.175 478.708ZM956.175 355.696L917.999 401.488L879.823 355.696L917.999 309.904L956.175 355.696ZM956.175 232.684L917.999 278.476L879.823 232.684L917.999 186.892L956.175 232.684ZM956.175 109.672L917.999 155.464L879.823 109.672L917.999 63.8804L956.175 109.672ZM866.711 2.36361L904.887 48.1556L866.711 93.9476L828.535 48.1556L866.711 2.36361ZM815.423 63.8804L853.599 109.672L815.423 155.464L777.247 109.672L815.423 63.8804ZM764.135 2.38521L802.311 48.1772L764.135 93.9692L725.959 48.1772L764.135 2.38521ZM751.042 109.694L712.866 155.486L674.69 109.694L712.866 63.902L751.042 109.694ZM661.597 2.36361L699.773 48.1556L661.597 93.9476L623.421 48.1556L661.597 2.36361ZM648.504 109.672L610.328 155.464L572.152 109.672L610.328 63.8804L648.504 109.672ZM559.04 2.36361L597.216 48.1556L559.04 93.9476L520.864 48.1556L559.04 2.36361ZM545.947 109.672L507.771 155.464L469.595 109.672L507.771 63.8804L545.947 109.672ZM456.464 2.36361L494.64 48.1556L456.464 93.9476L418.288 48.1556L456.464 2.36361ZM443.37 109.651L405.195 155.443L367.019 109.651L405.195 63.8588L443.37 109.651ZM353.907 2.36361L392.082 48.1556L353.907 93.9476L315.731 48.1556L353.907 2.36361ZM340.813 109.672L302.638 155.464L264.462 109.672L302.638 63.8804L340.813 109.672ZM251.349 2.36361L289.525 48.1556L251.349 93.9476L213.174 48.1556L251.349 2.36361ZM238.256 109.672L200.08 155.464L161.905 109.672L200.08 63.8804L238.256 109.672ZM148.792 2.36361L186.968 48.1556L148.792 93.9476L110.616 48.1556L148.792 2.36361ZM135.699 109.672L97.5233 155.464L59.3474 109.672L97.5233 63.8804L135.699 109.672ZM46.2352 2.36361L84.411 48.1556L46.2352 93.9476L8.05932 48.1556L46.2352 2.36361ZM33.1419 109.651L-5.0339 155.443L-43.2097 109.651L-5.0339 63.8588L33.1419 109.651ZM-56.341 2.36361L-18.1652 48.1556L-56.341 93.9476L-94.5169 48.1556L-56.341 2.36361ZM-69.4342 109.672L-107.61 155.464L-145.786 109.672L-107.61 63.8804L-69.4342 109.672ZM-158.898 2.36361L-120.722 48.1556L-158.898 93.9476L-197.074 48.1556L-158.898 2.36361ZM-171.991 109.672L-210.167 155.464L-248.343 109.672L-210.167 63.8804L-171.991 109.672ZM-261.455 2.36361L-223.279 48.1556L-261.455 93.9476L-299.631 48.1556L-261.455 2.36361ZM-274.548 109.672L-312.724 155.464L-350.9 109.672L-312.724 63.8804L-274.548 109.672ZM-364.012 2.36361L-325.837 48.1556L-364.012 93.9476L-402.188 48.1556L-364.012 2.36361ZM-453.476 109.672L-415.3 63.8804L-377.125 109.672L-415.3 155.464L-453.476 109.672ZM-453.476 232.684L-415.3 186.892L-377.125 232.684L-415.3 278.476L-453.476 232.684ZM-453.476 355.696L-415.3 309.904L-377.125 355.696L-415.3 401.488L-453.476 355.696ZM-453.476 478.708L-415.3 432.916L-377.125 478.708L-415.3 524.5L-453.476 478.708ZM-453.476 601.72L-415.3 555.928L-377.125 601.72L-415.3 647.512L-453.476 601.72ZM-453.476 724.732L-415.3 678.94L-377.125 724.732L-415.3 770.524L-453.476 724.732ZM-453.476 847.744L-415.3 801.952L-377.125 847.744L-415.3 893.536L-453.476 847.744ZM-453.476 970.756L-415.3 924.964L-377.125 970.756L-415.3 1016.55L-453.476 970.756ZM-364.012 1078.07L-402.188 1032.27L-364.012 986.481L-325.837 1032.27L-364.012 1078.07ZM-350.919 970.778L-312.743 924.986L-274.568 970.778L-312.743 1016.57L-350.919 970.778ZM-261.455 1078.09L-299.631 1032.29L-261.455 986.503L-223.279 1032.29L-261.455 1078.09ZM-248.362 970.778L-210.186 924.986L-172.01 970.778L-210.186 1016.57L-248.362 970.778ZM-158.898 1078.09L-197.074 1032.29L-158.898 986.503L-120.722 1032.29L-158.898 1078.09ZM-145.805 970.778L-107.629 924.986L-69.4533 970.778L-107.629 1016.57L-145.805 970.778ZM-56.341 1078.09L-94.5169 1032.29L-56.341 986.503L-18.1652 1032.29L-56.341 1078.09ZM-43.2478 970.778L-5.07197 924.986L33.1039 970.778L-5.07197 1016.57L-43.2478 970.778ZM46.2161 1078.09L8.04027 1032.29L46.2161 986.503L84.3919 1032.29L46.2161 1078.09ZM59.3093 970.778L97.4852 924.986L135.661 970.778L97.4852 1016.57L59.3093 970.778ZM148.773 1078.09L110.597 1032.29L148.773 986.503L186.949 1032.29L148.773 1078.09ZM161.866 970.778L200.042 924.986L238.218 970.778L200.042 1016.57L161.866 970.778ZM251.33 1078.09L213.155 1032.29L251.33 986.503L289.506 1032.29L251.33 1078.09ZM264.424 970.778L302.599 924.986L340.775 970.778L302.599 1016.57L264.424 970.778ZM353.888 1078.09L315.712 1032.29L353.888 986.503L392.063 1032.29L353.888 1078.09ZM366.981 970.778L405.157 924.986L443.332 970.778L405.157 1016.57L366.981 970.778ZM456.445 1078.09L418.269 1032.29L456.445 986.503L494.62 1032.29L456.445 1078.09ZM469.538 970.778L507.714 924.986L545.89 970.778L507.714 1016.57L469.538 970.778ZM559.002 1078.09L520.826 1032.29L559.002 986.503L597.178 1032.29L559.002 1078.09ZM572.095 970.778L610.271 924.986L648.447 970.778L610.271 1016.57L572.095 970.778ZM661.559 1078.09L623.383 1032.29L661.559 986.503L699.735 1032.29L661.559 1078.09ZM674.652 970.778L712.828 924.986L751.004 970.778L712.828 1016.57L674.652 970.778ZM764.116 1078.09L725.94 1032.29L764.116 986.503L802.292 1032.29L764.116 1078.09ZM777.209 970.778L815.385 924.986L853.561 970.778L815.385 1016.57L777.209 970.778ZM866.673 1078.09L828.497 1032.29L866.673 986.503L904.849 1032.29L866.673 1078.09ZM879.766 970.778L917.942 924.986L956.118 970.778L917.942 1016.57L879.766 970.778Z" fill="#E7B567"/>
</g>
</g>
<defs>
<filter id="filter0_d_227_578" x="-37.7517" y="-37.7964" width="611.752" height="654.676" filterUnits="userSpaceOnUse" color-interpolation-filters="sRGB">
<feFlood flood-opacity="0" result="BackgroundImageFix"/>
<feColorMatrix in="SourceAlpha" type="matrix" values="0 0 0 0 0 0 0 0 0 0 0 0 0 0 0 0 0 0 127 0" result="hardAlpha"/>
<feMorphology radius="13" operator="dilate" in="SourceAlpha" result="effect1_dropShadow_227_578"/>
<feOffset/>
<feGaussianBlur stdDeviation="12.5"/>
<feComposite in2="hardAlpha" operator="out"/>
<feColorMatrix type="matrix" values="0 0 0 0 0 0 0 0 0 0 0 0 0 0 0 0 0 0 0.3 0"/>
<feBlend mode="normal" in2="BackgroundImageFix" result="effect1_dropShadow_227_578"/>
<feBlend mode="normal" in="SourceGraphic" in2="effect1_dropShadow_227_578" result="shape"/>
</filter>
<linearGradient id="paint0_linear_227_578" x1="267.876" y1="0" x2="267.876" y2="578.675" gradientUnits="userSpaceOnUse">
<stop offset="0.0001" stop-color="#E9B05B"/>
<stop offset="1" stop-color="#AD5D13"/>
</linearGradient>
<clipPath id="clip0_227_578">
<rect width="536" height="360" rx="40" fill="white"/>
</clipPath>
<clipPath id="clip1_227_578">
<rect width="600" height="1080" fill="white" transform="translate(0.248291 0.203613)"/>
</clipPath>
</defs>
</svg>
