<svg width="1428" height="2473" viewBox="0 0 1428 2473" fill="none" xmlns="http://www.w3.org/2000/svg">
<path d="M14.124 2238.37C28.9904 2238.37 41.0396 2249.17 41.0396 2262.5V2362.9C41.0396 2376.22 53.0889 2387.02 67.9553 2387.02C82.8217 2387.02 94.8709 2376.22 94.8709 2362.9V2195.87C94.8709 2182.55 106.92 2171.75 121.786 2171.75C136.653 2171.75 148.702 2182.55 148.702 2195.87V2418.11C148.702 2431.44 160.751 2442.24 175.618 2442.24C190.484 2442.24 202.533 2431.44 202.533 2418.11V2262.5C202.533 2249.17 214.583 2238.37 229.449 2238.37C244.315 2238.37 256.365 2249.17 256.365 2262.5V2368.61C256.365 2381.94 268.414 2392.73 283.28 2392.73C298.147 2392.73 310.196 2381.94 310.196 2368.61V2218.7C310.196 2205.38 322.245 2194.58 337.111 2194.58C351.978 2194.58 364.027 2205.38 364.027 2218.7V2433.34C364.027 2446.67 376.076 2457.47 390.943 2457.47C405.809 2457.47 417.858 2446.67 417.858 2433.34V2273.73C417.858 2260.4 429.907 2249.61 444.774 2249.61C459.64 2249.61 471.69 2260.4 471.69 2273.73V2359.09C471.69 2372.42 483.739 2383.21 498.605 2383.21C513.472 2383.21 525.521 2372.42 525.521 2359.09V2218.7C525.521 2205.38 537.57 2194.58 552.436 2194.58C567.303 2194.58 579.352 2205.38 579.352 2218.7V2376.22C579.352 2389.55 591.401 2400.35 606.268 2400.35C621.134 2400.35 633.183 2389.55 633.183 2376.22V2273.73C633.183 2260.4 645.232 2249.61 660.099 2249.61C674.965 2249.61 687.014 2260.4 687.014 2273.73V2353.38C687.014 2366.7 699.064 2377.5 713.93 2377.5C728.796 2377.5 740.846 2366.7 740.846 2353.38V2157.28C740.846 2143.95 752.895 2133.16 767.761 2133.16C782.628 2133.16 794.677 2143.95 794.677 2157.28V2448.58C794.677 2461.9 806.726 2472.7 821.593 2472.7C836.459 2472.7 848.508 2461.9 848.508 2448.58V2194.14C848.508 2180.81 860.557 2170.02 875.424 2170.02C890.29 2170.02 902.339 2180.81 902.339 2194.14V2353.38C902.339 2366.7 914.388 2377.5 929.255 2377.5C944.121 2377.5 956.171 2366.7 956.171 2353.38V2262.5C956.171 2249.17 968.22 2238.37 983.086 2238.37C997.953 2238.37 1010 2249.17 1010 2262.5V2383.84C1010 2397.17 1022.05 2407.96 1036.92 2407.96C1051.78 2407.96 1063.83 2397.17 1063.83 2383.84V2184.62C1063.83 2171.29 1075.88 2160.5 1090.75 2160.5C1105.62 2160.5 1117.66 2171.29 1117.66 2184.62V2351.47C1117.66 2364.8 1129.71 2375.6 1144.58 2375.6C1159.45 2375.6 1171.5 2364.8 1171.5 2351.47V2147.44C1171.5 2134.11 1183.54 2123.31 1198.41 2123.31C1213.28 2123.31 1225.33 2134.11 1225.33 2147.44V2442.86C1225.33 2456.19 1237.38 2466.99 1252.24 2466.99C1267.11 2466.99 1279.16 2456.19 1279.16 2442.86V2279.52H1280.3C1283.63 2269.6 1293.91 2262.36 1306.05 2262.36C1318.2 2262.36 1328.48 2269.6 1331.83 2279.52H1332.97V2395.26C1332.97 2408.59 1345.02 2419.39 1359.89 2419.39C1374.75 2419.39 1386.8 2408.59 1386.8 2395.26V2199.34C1386.8 2186.01 1398.85 2175.22 1413.72 2175.22C1418.89 2175.22 1423.73 2176.55 1427.84 2178.83V1038H0V2241.99C4.11158 2239.7 8.92746 2238.37 14.124 2238.37Z" fill="#2C1D17"/>
<path d="M14.124 1958.3C28.9904 1958.3 41.0396 1969.09 41.0396 1982.42V2082.82C41.0396 2096.15 53.0889 2106.94 67.9553 2106.94C82.8217 2106.94 94.8709 2096.15 94.8709 2082.82V1915.8C94.8709 1902.47 106.92 1891.67 121.786 1891.67C136.653 1891.67 148.702 1902.47 148.702 1915.8V2138.04C148.702 2151.36 160.751 2162.16 175.618 2162.16C190.484 2162.16 202.533 2151.36 202.533 2138.04V1982.42C202.533 1969.09 214.583 1958.3 229.449 1958.3C244.315 1958.3 256.365 1969.09 256.365 1982.42V2088.53C256.365 2101.86 268.414 2112.66 283.28 2112.66C298.147 2112.66 310.196 2101.86 310.196 2088.53V1938.63C310.196 1925.3 322.245 1914.5 337.111 1914.5C351.978 1914.5 364.027 1925.3 364.027 1938.63V2153.27C364.027 2166.6 376.076 2177.39 390.943 2177.39C405.809 2177.39 417.858 2166.6 417.858 2153.27V1993.65C417.858 1980.32 429.907 1969.53 444.774 1969.53C459.64 1969.53 471.69 1980.32 471.69 1993.65V2079.01C471.69 2092.34 483.739 2103.14 498.605 2103.14C513.472 2103.14 525.521 2092.34 525.521 2079.01V1938.63C525.521 1925.3 537.57 1914.5 552.436 1914.5C567.303 1914.5 579.352 1925.3 579.352 1938.63V2096.15C579.352 2109.48 591.401 2120.27 606.268 2120.27C621.134 2120.27 633.183 2109.48 633.183 2096.15V1993.65C633.183 1980.32 645.232 1969.53 660.099 1969.53C674.965 1969.53 687.014 1980.32 687.014 1993.65V2073.3C687.014 2086.63 699.064 2097.42 713.93 2097.42C728.796 2097.42 740.846 2086.63 740.846 2073.3V1877.2C740.846 1863.87 752.895 1853.08 767.761 1853.08C782.628 1853.08 794.677 1863.87 794.677 1877.2V2168.5C794.677 2181.83 806.726 2192.62 821.593 2192.62C836.459 2192.62 848.508 2181.83 848.508 2168.5V1914.06C848.508 1900.74 860.557 1889.94 875.424 1889.94C890.29 1889.94 902.339 1900.74 902.339 1914.06V2073.3C902.339 2086.63 914.388 2097.42 929.255 2097.42C944.121 2097.42 956.171 2086.63 956.171 2073.3V1982.42C956.171 1969.09 968.22 1958.3 983.086 1958.3C997.953 1958.3 1010 1969.09 1010 1982.42V2103.76C1010 2117.09 1022.05 2127.89 1036.92 2127.89C1051.78 2127.89 1063.83 2117.09 1063.83 2103.76V1904.54C1063.83 1891.22 1075.88 1880.42 1090.75 1880.42C1105.62 1880.42 1117.66 1891.22 1117.66 1904.54V2071.39C1117.66 2084.72 1129.71 2095.52 1144.58 2095.52C1159.45 2095.52 1171.5 2084.72 1171.5 2071.39V1867.36C1171.5 1854.03 1183.54 1843.23 1198.41 1843.23C1213.28 1843.23 1225.33 1854.03 1225.33 1867.36V2162.79C1225.33 2176.12 1237.38 2186.91 1252.24 2186.91C1267.11 2186.91 1279.16 2176.12 1279.16 2162.79V1999.44H1280.3C1283.63 1989.52 1293.91 1982.29 1306.05 1982.29C1318.2 1982.29 1328.48 1989.52 1331.83 1999.44H1332.97V2115.19C1332.97 2128.52 1345.02 2139.31 1359.89 2139.31C1374.75 2139.31 1386.8 2128.52 1386.8 2115.19V1919.26C1386.8 1905.93 1398.85 1895.14 1413.72 1895.14C1418.89 1895.14 1423.73 1896.47 1427.84 1898.76V991H0V1961.91C4.11158 1959.63 8.92746 1958.3 14.124 1958.3Z" fill="url(#paint0_linear_226_577)"/>
<path d="M15.8107 1829.06C30.6413 1829.06 42.6614 1837.6 42.6614 1848.14V1927.51C42.6614 1938.05 54.6816 1946.58 69.5121 1946.58C84.3427 1946.58 96.3629 1938.05 96.3629 1927.51V1795.47C96.3629 1784.93 108.383 1776.39 123.214 1776.39C138.044 1776.39 150.064 1784.93 150.064 1795.47V1971.16C150.064 1981.7 162.085 1990.24 176.915 1990.24C191.746 1990.24 203.766 1981.7 203.766 1971.16V1848.14C203.766 1837.6 215.786 1829.06 230.617 1829.06C245.447 1829.06 257.467 1837.6 257.467 1848.14V1932.03C257.467 1942.56 269.487 1951.1 284.318 1951.1C299.149 1951.1 311.169 1942.56 311.169 1932.03V1813.51C311.169 1802.98 323.189 1794.44 338.019 1794.44C352.85 1794.44 364.87 1802.98 364.87 1813.51V1983.21C364.87 1993.74 376.89 2002.28 391.721 2002.28C406.551 2002.28 418.572 1993.74 418.572 1983.21V1857.02C418.572 1846.48 430.592 1837.95 445.422 1837.95C460.253 1837.95 472.273 1846.48 472.273 1857.02V1924.5C472.273 1935.04 484.293 1943.57 499.124 1943.57C513.954 1943.57 525.974 1935.04 525.974 1924.5V1813.51C525.974 1802.98 537.995 1794.44 552.825 1794.44C567.656 1794.44 579.676 1802.98 579.676 1813.51V1938.05C579.676 1948.58 591.696 1957.12 606.527 1957.12C621.357 1957.12 633.377 1948.58 633.377 1938.05V1857.02C633.377 1846.48 645.398 1837.95 660.228 1837.95C675.059 1837.95 687.079 1846.48 687.079 1857.02V1919.98C687.079 1930.52 699.099 1939.06 713.93 1939.06C728.76 1939.06 740.78 1930.52 740.78 1919.98V1764.95C740.78 1754.42 752.8 1745.88 767.631 1745.88C782.462 1745.88 794.482 1754.42 794.482 1764.95V1995.25C794.482 2005.79 806.502 2014.32 821.333 2014.32C836.163 2014.32 848.183 2005.79 848.183 1995.25V1794.1C848.183 1783.56 860.203 1775.02 875.034 1775.02C889.865 1775.02 901.885 1783.56 901.885 1794.1V1919.98C901.885 1930.52 913.905 1939.06 928.735 1939.06C943.566 1939.06 955.586 1930.52 955.586 1919.98V1848.14C955.586 1837.6 967.606 1829.06 982.437 1829.06C997.267 1829.06 1009.29 1837.6 1009.29 1848.14V1944.07C1009.29 1954.61 1021.31 1963.14 1036.14 1963.14C1050.97 1963.14 1062.99 1954.61 1062.99 1944.07V1786.57C1062.99 1776.03 1075.01 1767.5 1089.84 1767.5C1104.67 1767.5 1116.69 1776.03 1116.69 1786.57V1918.48C1116.69 1929.02 1128.71 1937.55 1143.54 1937.55C1158.37 1937.55 1170.39 1929.02 1170.39 1918.48V1757.17C1170.39 1746.63 1182.41 1738.1 1197.24 1738.1C1212.07 1738.1 1224.09 1746.63 1224.09 1757.17V1990.73C1224.09 2001.27 1236.11 2009.8 1250.94 2009.8C1265.77 2009.8 1277.79 2001.27 1277.79 1990.73V1861.59H1278.93C1282.26 1853.75 1292.51 1848.03 1304.63 1848.03C1316.74 1848.03 1327 1853.75 1330.34 1861.59H1331.48V1953.1C1331.48 1963.64 1343.5 1972.17 1358.33 1972.17C1373.16 1972.17 1385.18 1963.64 1385.18 1953.1V1798.21C1385.18 1787.67 1397.2 1779.13 1412.03 1779.13C1417.19 1779.13 1422.02 1780.19 1426.12 1781.99V998H1.7207V1831.92C5.82237 1830.12 10.6266 1829.06 15.8107 1829.06Z" fill="#E7982B"/>
<path d="M16.1026 1092.8C30.9291 1092.8 42.9459 1101.33 42.9459 1111.87V1191.22C42.9459 1201.75 54.9627 1210.28 69.7891 1210.28C84.6155 1210.28 96.6323 1201.75 96.6323 1191.22V1059.21C96.6323 1048.68 108.649 1040.15 123.475 1040.15C138.302 1040.15 150.319 1048.68 150.319 1059.21V1234.86C150.319 1245.39 162.336 1253.92 177.162 1253.92C191.988 1253.92 204.005 1245.39 204.005 1234.86V1111.87C204.005 1101.33 216.022 1092.8 230.848 1092.8C245.675 1092.8 257.692 1101.33 257.692 1111.87V1195.73C257.692 1206.27 269.708 1214.8 284.535 1214.8C299.361 1214.8 311.378 1206.27 311.378 1195.73V1077.26C311.378 1066.72 323.395 1058.19 338.221 1058.19C353.048 1058.19 365.064 1066.72 365.064 1077.26V1246.9C365.064 1257.43 377.081 1265.96 391.908 1265.96C406.734 1265.96 418.751 1257.43 418.751 1246.9V1120.75C418.751 1110.21 430.768 1101.68 445.594 1101.68C460.42 1101.68 472.437 1110.21 472.437 1120.75V1188.21C472.437 1198.74 484.454 1207.27 499.28 1207.27C514.107 1207.27 526.124 1198.74 526.124 1188.21V1077.26C526.124 1066.72 538.14 1058.19 552.967 1058.19C567.793 1058.19 579.81 1066.72 579.81 1077.26V1201.75C579.81 1212.28 591.827 1220.82 606.653 1220.82C621.48 1220.82 633.496 1212.28 633.496 1201.75V1120.75C633.496 1110.21 645.513 1101.68 660.34 1101.68C675.166 1101.68 687.183 1110.21 687.183 1120.75V1183.69C687.183 1194.23 699.2 1202.76 714.026 1202.76C728.853 1202.76 740.869 1194.23 740.869 1183.69V1028.71C740.869 1018.18 752.886 1009.65 767.713 1009.65C782.539 1009.65 794.556 1018.18 794.556 1028.71V1258.93C794.556 1269.47 806.573 1278 821.399 1278C836.225 1278 848.242 1269.47 848.242 1258.93V1057.84C848.242 1047.31 860.259 1038.78 875.085 1038.78C889.912 1038.78 901.929 1047.31 901.929 1057.84V1183.69C901.929 1194.23 913.945 1202.76 928.772 1202.76C943.598 1202.76 955.615 1194.23 955.615 1183.69V1111.87C955.615 1101.33 967.632 1092.8 982.458 1092.8C997.285 1092.8 1009.3 1101.33 1009.3 1111.87V1207.77C1009.3 1218.3 1021.32 1226.84 1036.14 1226.84C1050.97 1226.84 1062.99 1218.3 1062.99 1207.77V1050.32C1062.99 1039.79 1075 1031.25 1089.83 1031.25C1104.66 1031.25 1116.67 1039.79 1116.67 1050.32V1182.19C1116.67 1192.72 1128.69 1201.25 1143.52 1201.25C1158.34 1201.25 1170.36 1192.72 1170.36 1182.19V1020.93C1170.36 1010.4 1182.38 1001.87 1197.2 1001.87C1212.03 1001.87 1224.05 1010.4 1224.05 1020.93V1254.42C1224.05 1264.95 1236.06 1273.49 1250.89 1273.49C1265.72 1273.49 1277.73 1264.95 1277.73 1254.42V1125.32H1278.87C1282.19 1117.48 1292.45 1111.76 1304.56 1111.76C1316.67 1111.76 1326.92 1117.48 1330.26 1125.32H1331.4V1216.8C1331.4 1227.33 1343.42 1235.87 1358.24 1235.87C1373.07 1235.87 1385.09 1227.33 1385.09 1216.8V1061.95C1385.09 1051.42 1397.1 1042.89 1411.93 1042.89C1417.09 1042.89 1421.92 1043.94 1426.02 1045.75V262H2.0166V1095.66C6.11712 1093.86 10.92 1092.8 16.1026 1092.8Z" fill="#E7982B"/>
<path d="M16.1026 830.802C30.9291 830.802 42.9459 839.334 42.9459 849.868V929.217C42.9459 939.751 54.9627 948.283 69.7891 948.283C84.6155 948.283 96.6323 939.751 96.6323 929.217V797.214C96.6323 786.681 108.649 778.148 123.475 778.148C138.302 778.148 150.319 786.681 150.319 797.214V972.857C150.319 983.391 162.336 991.923 177.162 991.923C191.988 991.923 204.005 983.391 204.005 972.857V849.868C204.005 839.334 216.022 830.802 230.848 830.802C245.675 830.802 257.692 839.334 257.692 849.868V933.731C257.692 944.265 269.708 952.798 284.535 952.798C299.361 952.798 311.378 944.265 311.378 933.731V815.257C311.378 804.723 323.395 796.191 338.221 796.191C353.048 796.191 365.064 804.723 365.064 815.257V984.895C365.064 995.429 377.081 1003.96 391.908 1003.96C406.734 1003.96 418.751 995.429 418.751 984.895V858.746C418.751 848.213 430.768 839.68 445.594 839.68C460.42 839.68 472.437 848.213 472.437 858.746V926.207C472.437 936.741 484.454 945.273 499.28 945.273C514.107 945.273 526.124 936.741 526.124 926.207V815.257C526.124 804.723 538.14 796.191 552.967 796.191C567.793 796.191 579.81 804.723 579.81 815.257V939.751C579.81 950.285 591.827 958.817 606.653 958.817C621.48 958.817 633.496 950.285 633.496 939.751V858.746C633.496 848.213 645.513 839.68 660.34 839.68C675.166 839.68 687.183 848.213 687.183 858.746V921.693C687.183 932.227 699.2 940.759 714.026 940.759C728.853 940.759 740.869 932.227 740.869 921.693V766.712C740.869 756.178 752.886 747.646 767.713 747.646C782.539 747.646 794.556 756.178 794.556 766.712V996.934C794.556 1007.47 806.573 1016 821.399 1016C836.225 1016 848.242 1007.47 848.242 996.934V795.845C848.242 785.311 860.259 776.779 875.085 776.779C889.912 776.779 901.929 785.311 901.929 795.845V921.693C901.929 932.227 913.945 940.759 928.772 940.759C943.598 940.759 955.615 932.227 955.615 921.693V849.868C955.615 839.334 967.632 830.802 982.458 830.802C997.285 830.802 1009.3 839.334 1009.3 849.868V945.77C1009.3 956.304 1021.32 964.836 1036.14 964.836C1050.97 964.836 1062.99 956.304 1062.99 945.77V788.321C1062.99 777.787 1075 769.255 1089.83 769.255C1104.66 769.255 1116.67 777.787 1116.67 788.321V920.188C1116.67 930.722 1128.69 939.254 1143.52 939.254C1158.34 939.254 1170.36 930.722 1170.36 920.188V758.932C1170.36 748.398 1182.38 739.866 1197.2 739.866C1212.03 739.866 1224.05 748.398 1224.05 758.932V992.419C1224.05 1002.95 1236.06 1011.49 1250.89 1011.49C1265.72 1011.49 1277.73 1002.95 1277.73 992.419V863.321H1278.87C1282.19 855.481 1292.45 849.763 1304.56 849.763C1316.67 849.763 1326.92 855.481 1330.26 863.321H1331.4V954.799C1331.4 965.333 1343.42 973.865 1358.24 973.865C1373.07 973.865 1385.09 965.333 1385.09 954.799V799.953C1385.09 789.419 1397.1 780.887 1411.93 780.887C1417.09 780.887 1421.92 781.94 1426.02 783.746V6.02889e-05H2.0166V833.661C6.11712 831.855 10.92 830.802 16.1026 830.802Z" fill="#E7982B"/>
<defs>
<linearGradient id="paint0_linear_226_577" x1="713.921" y1="1344.46" x2="713.921" y2="2192.62" gradientUnits="userSpaceOnUse">
<stop offset="0.145833" stop-color="#99634E"/>
<stop offset="1" stop-color="#5D3424"/>
</linearGradient>
</defs>
</svg>
