<svg width="1428" height="1482" viewBox="0 0 1428 1482" fill="none" xmlns="http://www.w3.org/2000/svg">
<path d="M14.124 1247.37C28.9904 1247.37 41.0396 1258.17 41.0396 1271.5V1371.9C41.0396 1385.22 53.0889 1396.02 67.9553 1396.02C82.8217 1396.02 94.8709 1385.22 94.8709 1371.9V1204.87C94.8709 1191.55 106.92 1180.75 121.786 1180.75C136.653 1180.75 148.702 1191.55 148.702 1204.87V1427.11C148.702 1440.44 160.751 1451.24 175.618 1451.24C190.484 1451.24 202.533 1440.44 202.533 1427.11V1271.5C202.533 1258.17 214.583 1247.37 229.449 1247.37C244.315 1247.37 256.365 1258.17 256.365 1271.5V1377.61C256.365 1390.94 268.414 1401.73 283.28 1401.73C298.147 1401.73 310.196 1390.94 310.196 1377.61V1227.7C310.196 1214.38 322.245 1203.58 337.111 1203.58C351.978 1203.58 364.027 1214.38 364.027 1227.7V1442.34C364.027 1455.67 376.076 1466.47 390.943 1466.47C405.809 1466.47 417.858 1455.67 417.858 1442.34V1282.73C417.858 1269.4 429.907 1258.61 444.774 1258.61C459.64 1258.61 471.69 1269.4 471.69 1282.73V1368.09C471.69 1381.42 483.739 1392.21 498.605 1392.21C513.472 1392.21 525.521 1381.42 525.521 1368.09V1227.7C525.521 1214.38 537.57 1203.58 552.436 1203.58C567.303 1203.58 579.352 1214.38 579.352 1227.7V1385.22C579.352 1398.55 591.401 1409.35 606.268 1409.35C621.134 1409.35 633.183 1398.55 633.183 1385.22V1282.73C633.183 1269.4 645.232 1258.61 660.099 1258.61C674.965 1258.61 687.014 1269.4 687.014 1282.73V1362.38C687.014 1375.7 699.064 1386.5 713.93 1386.5C728.796 1386.5 740.846 1375.7 740.846 1362.38V1166.28C740.846 1152.95 752.895 1142.16 767.761 1142.16C782.628 1142.16 794.677 1152.95 794.677 1166.28V1457.58C794.677 1470.9 806.726 1481.7 821.593 1481.7C836.459 1481.7 848.508 1470.9 848.508 1457.58V1203.14C848.508 1189.81 860.557 1179.02 875.424 1179.02C890.29 1179.02 902.339 1189.81 902.339 1203.14V1362.38C902.339 1375.7 914.388 1386.5 929.255 1386.5C944.121 1386.5 956.171 1375.7 956.171 1362.38V1271.5C956.171 1258.17 968.22 1247.37 983.086 1247.37C997.953 1247.37 1010 1258.17 1010 1271.5V1392.84C1010 1406.17 1022.05 1416.96 1036.92 1416.96C1051.78 1416.96 1063.83 1406.17 1063.83 1392.84V1193.62C1063.83 1180.29 1075.88 1169.5 1090.75 1169.5C1105.62 1169.5 1117.66 1180.29 1117.66 1193.62V1360.47C1117.66 1373.8 1129.71 1384.6 1144.58 1384.6C1159.45 1384.6 1171.5 1373.8 1171.5 1360.47V1156.44C1171.5 1143.11 1183.54 1132.31 1198.41 1132.31C1213.28 1132.31 1225.33 1143.11 1225.33 1156.44V1451.86C1225.33 1465.19 1237.38 1475.99 1252.24 1475.99C1267.11 1475.99 1279.16 1465.19 1279.16 1451.86V1288.52H1280.3C1283.63 1278.6 1293.91 1271.36 1306.05 1271.36C1318.2 1271.36 1328.48 1278.6 1331.83 1288.52H1332.97V1404.26C1332.97 1417.59 1345.02 1428.39 1359.89 1428.39C1374.75 1428.39 1386.8 1417.59 1386.8 1404.26V1208.34C1386.8 1195.01 1398.85 1184.22 1413.72 1184.22C1418.89 1184.22 1423.73 1185.55 1427.84 1187.83V47H0V1250.99C4.11158 1248.7 8.92746 1247.37 14.124 1247.37Z" fill="#2C1D17"/>
<path d="M14.124 967.295C28.9904 967.295 41.0396 978.091 41.0396 991.419V1091.82C41.0396 1105.15 53.0889 1115.94 67.9553 1115.94C82.8217 1115.94 94.8709 1105.15 94.8709 1091.82V924.797C94.8709 911.469 106.92 900.673 121.786 900.673C136.653 900.673 148.702 911.469 148.702 924.797V1147.04C148.702 1160.36 160.751 1171.16 175.618 1171.16C190.484 1171.16 202.533 1160.36 202.533 1147.04V991.419C202.533 978.091 214.583 967.295 229.449 967.295C244.315 967.295 256.365 978.091 256.365 991.419V1097.53C256.365 1110.86 268.414 1121.66 283.28 1121.66C298.147 1121.66 310.196 1110.86 310.196 1097.53V947.627C310.196 934.299 322.245 923.503 337.111 923.503C351.978 923.503 364.027 934.299 364.027 947.627V1162.27C364.027 1175.6 376.076 1186.39 390.943 1186.39C405.809 1186.39 417.858 1175.6 417.858 1162.27V1002.65C417.858 989.325 429.907 978.529 444.774 978.529C459.64 978.529 471.69 989.325 471.69 1002.65V1088.01C471.69 1101.34 483.739 1112.14 498.605 1112.14C513.472 1112.14 525.521 1101.34 525.521 1088.01V947.627C525.521 934.299 537.57 923.503 552.436 923.503C567.303 923.503 579.352 934.299 579.352 947.627V1105.15C579.352 1118.48 591.401 1129.27 606.268 1129.27C621.134 1129.27 633.183 1118.48 633.183 1105.15V1002.65C633.183 989.325 645.232 978.529 660.099 978.529C674.965 978.529 687.014 989.325 687.014 1002.65V1082.3C687.014 1095.63 699.064 1106.42 713.93 1106.42C728.796 1106.42 740.846 1095.63 740.846 1082.3V886.203C740.846 872.875 752.895 862.079 767.761 862.079C782.628 862.079 794.677 872.875 794.677 886.203V1177.5C794.677 1190.83 806.726 1201.62 821.593 1201.62C836.459 1201.62 848.508 1190.83 848.508 1177.5V923.065C848.508 909.737 860.557 898.941 875.424 898.941C890.29 898.941 902.339 909.737 902.339 923.065V1082.3C902.339 1095.63 914.388 1106.42 929.255 1106.42C944.121 1106.42 956.171 1095.63 956.171 1082.3V991.419C956.171 978.091 968.22 967.295 983.086 967.295C997.953 967.295 1010 978.091 1010 991.419V1112.76C1010 1126.09 1022.05 1136.89 1036.92 1136.89C1051.78 1136.89 1063.83 1126.09 1063.83 1112.76V913.545C1063.83 900.216 1075.88 889.421 1090.75 889.421C1105.62 889.421 1117.66 900.216 1117.66 913.545V1080.39C1117.66 1093.72 1129.71 1104.52 1144.58 1104.52C1159.45 1104.52 1171.5 1093.72 1171.5 1080.39V876.359C1171.5 863.031 1183.54 852.235 1198.41 852.235C1213.28 852.235 1225.33 863.031 1225.33 876.359V1171.79C1225.33 1185.12 1237.38 1195.91 1252.24 1195.91C1267.11 1195.91 1279.16 1185.12 1279.16 1171.79V1008.44H1280.3C1283.63 998.521 1293.91 991.286 1306.05 991.286C1318.2 991.286 1328.48 998.521 1331.83 1008.44H1332.97V1124.19C1332.97 1137.52 1345.02 1148.31 1359.89 1148.31C1374.75 1148.31 1386.8 1137.52 1386.8 1124.19V928.263C1386.8 914.935 1398.85 904.139 1413.72 904.139C1418.89 904.139 1423.73 905.472 1427.84 907.756V0H0V970.913C4.11158 968.628 8.92746 967.295 14.124 967.295Z" fill="url(#paint0_linear_226_577)"/>
<path d="M15.8107 838.064C30.6413 838.064 42.6614 846.599 42.6614 857.136V936.51C42.6614 947.047 54.6816 955.583 69.5121 955.583C84.3427 955.583 96.3629 947.047 96.3629 936.51V804.466C96.3629 793.929 108.383 785.394 123.214 785.394C138.044 785.394 150.064 793.929 150.064 804.466V980.164C150.064 990.701 162.085 999.236 176.915 999.236C191.746 999.236 203.766 990.701 203.766 980.164V857.136C203.766 846.599 215.786 838.064 230.617 838.064C245.447 838.064 257.467 846.599 257.467 857.136V941.026C257.467 951.563 269.487 960.098 284.318 960.098C299.149 960.098 311.169 951.563 311.169 941.026V822.514C311.169 811.977 323.189 803.442 338.019 803.442C352.85 803.442 364.87 811.977 364.87 822.514V992.206C364.87 1002.74 376.89 1011.28 391.721 1011.28C406.551 1011.28 418.572 1002.74 418.572 992.206V866.017C418.572 855.48 430.592 846.945 445.422 846.945C460.253 846.945 472.273 855.48 472.273 866.017V933.5C472.273 944.037 484.293 952.572 499.124 952.572C513.954 952.572 525.974 944.037 525.974 933.5V822.514C525.974 811.977 537.995 803.442 552.825 803.442C567.656 803.442 579.676 811.977 579.676 822.514V947.047C579.676 957.585 591.696 966.12 606.527 966.12C621.357 966.12 633.377 957.585 633.377 947.047V866.017C633.377 855.48 645.398 846.945 660.228 846.945C675.059 846.945 687.079 855.48 687.079 866.017V928.984C687.079 939.521 699.099 948.056 713.93 948.056C728.76 948.056 740.78 939.521 740.78 928.984V773.954C740.78 763.417 752.8 754.882 767.631 754.882C782.462 754.882 794.482 763.417 794.482 773.954V1004.25C794.482 1014.79 806.502 1023.32 821.333 1023.32C836.163 1023.32 848.183 1014.79 848.183 1004.25V803.096C848.183 792.559 860.203 784.024 875.034 784.024C889.865 784.024 901.885 792.559 901.885 803.096V928.984C901.885 939.521 913.905 948.056 928.735 948.056C943.566 948.056 955.586 939.521 955.586 928.984V857.136C955.586 846.599 967.606 838.064 982.437 838.064C997.267 838.064 1009.29 846.599 1009.29 857.136V953.069C1009.29 963.606 1021.31 972.141 1036.14 972.141C1050.97 972.141 1062.99 963.606 1062.99 953.069V795.57C1062.99 785.033 1075.01 776.498 1089.84 776.498C1104.67 776.498 1116.69 785.033 1116.69 795.57V927.479C1116.69 938.016 1128.71 946.551 1143.54 946.551C1158.37 946.551 1170.39 938.016 1170.39 927.479V766.171C1170.39 755.634 1182.41 747.099 1197.24 747.099C1212.07 747.099 1224.09 755.634 1224.09 766.171V999.733C1224.09 1010.27 1236.11 1018.8 1250.94 1018.8C1265.77 1018.8 1277.79 1010.27 1277.79 999.733V870.594H1278.93C1282.26 862.751 1292.51 857.031 1304.63 857.031C1316.74 857.031 1327 862.751 1330.34 870.594H1331.48V962.1C1331.48 972.638 1343.5 981.172 1358.33 981.172C1373.16 981.172 1385.18 972.638 1385.18 962.1V807.206C1385.18 796.669 1397.2 788.134 1412.03 788.134C1417.19 788.134 1422.02 789.187 1426.12 790.994V7.00006H1.7207V840.924C5.82237 839.118 10.6266 838.064 15.8107 838.064Z" fill="#E7982B"/>
<defs>
<linearGradient id="paint0_linear_226_577" x1="713.921" y1="353.456" x2="713.921" y2="1201.62" gradientUnits="userSpaceOnUse">
<stop offset="0.145833" stop-color="#99634E"/>
<stop offset="1" stop-color="#5D3424"/>
</linearGradient>
</defs>
</svg>
